<svg xmlns="http://www.w3.org/2000/svg" viewBox="0 0 409.75 140.05" fill="rgb(15 23 42)">
    <g id="Layer_2" data-name="Layer 2">
        <g id="Layer_1-2" data-name="Layer 1">
            <path d="M46.2,61.51a.92.92,0,0,1,.69,1.08,31.43,31.43,0,0,1-1,4.24c-.26.92-.72,2.24-1.38,3.94q-1.27,3.36-3.35,7.6-2.46,5.22-7.49,14.69-7.8,14.6-16.47,28.6Q10.7,132,8.14,135.56c-.53.6-1.06,1.15-1.58,1.68l-.5.49a5.27,5.27,0,0,1-.69.4,6.69,6.69,0,0,1-1.87.59,2,2,0,0,1-1.68-.79,3.53,3.53,0,0,1-.59-1.28c0-.26,0-.73.1-1.38.07-.46.23-1.18.49-2.17a41.72,41.72,0,0,1,3.06-7.89,130.37,130.37,0,0,1,8.48-14.3q4.44-6.41,9.76-13.31a248.35,248.35,0,0,1,21.7-24.75Q48.27,69.6,51,67.32a30.45,30.45,0,0,1,7.3-4.63,12,12,0,0,1,4.63-1,6,6,0,0,1,2.67.59,5.59,5.59,0,0,1,2.27,1.78,7.29,7.29,0,0,1,1.47,5.13,9.33,9.33,0,0,1-1.57,5c-.14.13-.4.42-.79.88l-.69.89c-.46.53-1,1-1.48,1.58a30.23,30.23,0,0,1-3.55,2.86,18.22,18.22,0,0,1-8.58,3.15,21.55,21.55,0,0,1-4.64-.09,15,15,0,0,1-2.46-.69,5.56,5.56,0,0,1-1.38-.89,3.8,3.8,0,0,1-1.09-2.07,3.58,3.58,0,0,1,.4-2,13.14,13.14,0,0,1,.89-1.19,10.9,10.9,0,0,1,2.07-1.38,15.88,15.88,0,0,1,4.14-1.58c1.64-.46,4.49-.59,8.53-.39a69.72,69.72,0,0,0,8.13.1A35.47,35.47,0,0,0,75.09,72a45.28,45.28,0,0,0,7.5-3.16.89.89,0,0,1,1.38.45.94.94,0,0,1-.39,1.43l-.1.09A48.42,48.42,0,0,1,67.4,75.21q-2,.2-8.28.05t-7.89.54A9,9,0,0,0,48,77.48a6.74,6.74,0,0,0-1.19,1.28l-.19.59.09-.09V79l.4.1a4.77,4.77,0,0,0,1.48.2,12.89,12.89,0,0,0,3.55-.1q6.6-.89,12.13-7.5a5.69,5.69,0,0,0,1-2.71,4.1,4.1,0,0,0-.39-2.61,2.83,2.83,0,0,0-2.17-1.28,6.73,6.73,0,0,0-3.35.29A19.54,19.54,0,0,0,52.41,69c-1.84,1.45-3.88,3.22-6.11,5.33A241.2,241.2,0,0,0,24.41,98.58Q12.19,114.56,6.76,126c-.6,1.31-1.12,2.56-1.58,3.75a13.45,13.45,0,0,0-1,3.74,6.38,6.38,0,0,0-.1,1.88,2,2,0,0,0,.2.69.69.69,0,0,0-.1-.3.94.94,0,0,0-.79-.39c-.13,0-.13-.07,0-.2l.1-.2.1-.19.1-.1,1-1.58q3.66-5.43,8.58-13.81,7.89-13.22,16.47-28.4,3.06-5.42,7.79-14.3,2.28-4,3.85-7.2c1.84-3.55,3-5.94,3.45-7.19A.92.92,0,0,1,46.2,61.51Z"/>
            <path d="M3.58,140H3.5a3.19,3.19,0,0,1-2.66-1.28A4.5,4.5,0,0,1,0,137l0-.15v-.15c0-.3,0-.78.1-1.5v-.06a21.48,21.48,0,0,1,.52-2.31,43.31,43.31,0,0,1,3.15-8.13,132.17,132.17,0,0,1,8.56-14.42c3-4.29,6.26-8.79,9.81-13.39q4.59-5.88,9-11.08c1.54-2.8,3.3-6.06,5.26-9.75,1.52-2.69,2.8-5.09,3.84-7.17,1.79-3.46,2.93-5.82,3.38-7a2.2,2.2,0,0,1,1.09-1.42,2.28,2.28,0,0,1,1.88,0h0a2.15,2.15,0,0,1,1.48,2.39,31.94,31.94,0,0,1-1,4.43c-.2.71-.51,1.62-.93,2.75,1.47-1.33,2.84-2.52,4.09-3.55a31.38,31.38,0,0,1,7.62-4.82A13.12,13.12,0,0,1,63,60.47a7.12,7.12,0,0,1,3.19.71,6.62,6.62,0,0,1,2.73,2.15,8.49,8.49,0,0,1,1.72,6,11.21,11.21,0,0,1-.37,2.56,33.4,33.4,0,0,0,4.5-1.06A44.31,44.31,0,0,0,82,67.71a2.17,2.17,0,0,1,1.69-.23,2.29,2.29,0,0,1,1.35,1.19,2.14,2.14,0,0,1-.72,3l-.15.16L84,71.9a49.92,49.92,0,0,1-16.44,4.54l-.3.37c-.47.54-1,1.09-1.53,1.64a31.62,31.62,0,0,1-3.72,3,19.67,19.67,0,0,1-9.17,3.36,22.73,22.73,0,0,1-4.91-.1l-.08,0A15.75,15.75,0,0,1,45.15,84l-.09,0c-.32-.16-.59-.31-.83-.46l-.45.45.2-.61a4.21,4.21,0,0,1-.62-.5A5,5,0,0,1,42,80.34c-.27.27-.53.55-.79.82-1.59,3.24-3.75,7.43-6.43,12.48C29.58,103.35,24,113,18.26,122.31c-4.41,7-7.39,11.57-9.13,14l-.07.09c-.54.61-1.09,1.19-1.63,1.73l-.68.65a8.54,8.54,0,0,1-.82.47,8,8,0,0,1-2.28.71ZM2.47,136.5a1.85,1.85,0,0,0,.32.66.76.76,0,0,0,.64.33l.43-.1-.45-.47a1.42,1.42,0,0,1-.25-.34,1.39,1.39,0,0,1-.68-.32C2.48,136.35,2.47,136.43,2.47,136.5Zm2.86-1.22a1.82,1.82,0,0,1,.19.78v.47l.17-.16c.49-.5,1-1,1.48-1.58,1.69-2.34,4.72-7,9-13.79,5.75-9.26,11.27-18.86,16.43-28.52Q33.89,90,35,87.85q-3.18,3.57-6.39,7.48c-4.95,8.7-9.76,17-14.32,24.59C11,125.5,8.14,130.17,5.71,133.79l-.4.63a5.08,5.08,0,0,0,0,.78S5.32,135.26,5.33,135.28Zm9.56-21.14q-2.86,4.45-5,8.42,1.13-1.86,2.32-3.89Q13.54,116.44,14.89,114.14ZM48.28,82.28a20.59,20.59,0,0,0,4.33.09,17.13,17.13,0,0,0,8-3A26.49,26.49,0,0,0,64,76.68l.13-.12-3.09,0a17.9,17.9,0,0,1-8.72,3.84,14,14,0,0,1-3.81.12,6.26,6.26,0,0,1-1.19-.11L46,81.64l.07,0A13.38,13.38,0,0,0,48.28,82.28Zm-3.91-2.59a2.47,2.47,0,0,0,.46,1l.63-1.88V77.43l-.15.13a11.31,11.31,0,0,0-.7.93A2.27,2.27,0,0,0,44.37,79.69Zm4.86-1.62A10.84,10.84,0,0,0,51.89,78H52a14.61,14.61,0,0,0,4.63-1.47c-3.29,0-4.45.29-4.86.46l-.14,0A8.53,8.53,0,0,0,49.23,78.07Zm-3.9-13.91c-.62,1.38-1.57,3.3-2.87,5.8-1,2.09-2.35,4.53-3.86,7.24l-.32.59c1.18-1.26,2.36-2.49,3.52-3.67.6-1.35,1.13-2.62,1.57-3.78.65-1.68,1.1-3,1.35-3.85S45.17,64.84,45.33,64.16Zm.18,13.23.65.17A8.91,8.91,0,0,1,48,75.93l-.9.46A11.18,11.18,0,0,0,45.51,77.39Zm16.13-11.2a6.36,6.36,0,0,0-2,.34A18.39,18.39,0,0,0,53.18,70c-1,.79-2.06,1.67-3.18,2.66l.34-.08c1.78-.5,4.69-.64,8.89-.43l2.87.12q.59-.63,1.17-1.32A4.52,4.52,0,0,0,64,68.8,2.89,2.89,0,0,0,63.78,67a1.63,1.63,0,0,0-1.28-.69l-.07,0A4,4,0,0,0,61.64,66.19Zm1.23-2.35a4.14,4.14,0,0,1,3,1.83,5.35,5.35,0,0,1,.58,3.43,7,7,0,0,1-1.14,3.18c.78,0,1.41,0,1.87-.07l.32,0a8.35,8.35,0,0,0,.63-3,6,6,0,0,0-1.22-4.33,4.2,4.2,0,0,0-1.78-1.39l-.06,0A4.66,4.66,0,0,0,63,62.94a10.94,10.94,0,0,0-4.16.89,19.17,19.17,0,0,0-2.89,1.5A18.35,18.35,0,0,1,59,64.16,7.86,7.86,0,0,1,62.87,63.84ZM46.2,61.51l-.4,1.1h0Z"/>
            <path d="M125.34,69.35a1,1,0,0,1-.55,1.42,57.63,57.63,0,0,1-16.27,4.74,58.88,58.88,0,0,1-11,.69c-.4.59-.69,1-.89,1.28A29.27,29.27,0,0,1,91,84a26.7,26.7,0,0,1-3.75,2.56,10.41,10.41,0,0,1-4.53,1.58,7.09,7.09,0,0,1-2.86-.39,5.52,5.52,0,0,1-2.57-2,7.49,7.49,0,0,1-1.08-2.86,9.12,9.12,0,0,1,0-2.66,14,14,0,0,1,1.28-4.63,23.63,23.63,0,0,1,2.27-4c.06-.06.33-.39.79-1a5.74,5.74,0,0,1-.5-1.09,4.72,4.72,0,0,1-.09-2.56,15,15,0,0,1,.69-2.17,12.76,12.76,0,0,1,6.11-6.41A18.73,18.73,0,0,1,95.11,56a8.75,8.75,0,0,1,4.54,1.28,5.72,5.72,0,0,1,1.67,1.88,5.39,5.39,0,0,1,.79,2.17,12.72,12.72,0,0,1,0,4.53A24.72,24.72,0,0,1,100.73,70q-.89,2.07-2,4.14a68.47,68.47,0,0,0,9.47-.69,55.92,55.92,0,0,0,15.68-4.64A1,1,0,0,1,125.34,69.35ZM95,76.4a.21.21,0,0,1,0-.15l.15-.15a31.93,31.93,0,0,1-3.65-.39,24.62,24.62,0,0,1-7.49-2.17,1,1,0,0,0-.2.24l-.2.3a.54.54,0,0,0-.1.25,24.11,24.11,0,0,0-2,3.3,10.31,10.31,0,0,0-1,3.2,3.83,3.83,0,0,0,.19,2.57,2.62,2.62,0,0,0,2,1.08,7.68,7.68,0,0,0,3.45-.2,11.2,11.2,0,0,0,3.35-2A31.85,31.85,0,0,0,95,76.4ZM82,68.9a18.23,18.23,0,0,1,4.53-3.65,2.2,2.2,0,0,1,1.63-.15,1.93,1.93,0,0,1,1.23,1,1.72,1.72,0,0,1,.3,1.48,2.18,2.18,0,0,1-.89,1.28l-.1.1a15.73,15.73,0,0,0-3.25,2.86,24,24,0,0,0,6.41,1.77c1.44.2,3,.33,4.63.4a43.21,43.21,0,0,0,2.57-4.73,20.31,20.31,0,0,0,1.18-3.75,11,11,0,0,0,.1-3.85,4.18,4.18,0,0,0-1.78-2.86,5.54,5.54,0,0,0-3.45-1A16.21,16.21,0,0,0,87.62,60a10.93,10.93,0,0,0-5.13,5.52C81.9,67.13,81.73,68.24,82,68.9Z"/>
            <path d="M82.21,89.38a8.28,8.28,0,0,1-2.8-.48,6.69,6.69,0,0,1-3.15-2.42A8.78,8.78,0,0,1,75,83.12a10.54,10.54,0,0,1,0-3,15.52,15.52,0,0,1,1.39-5,24.69,24.69,0,0,1,2.37-4.22l.15-.18h0l.2-.26c-.07-.17-.14-.36-.2-.54a6,6,0,0,1-.14-3.2v-.06a19.92,19.92,0,0,1,.74-2.33,14.09,14.09,0,0,1,6.68-7,20,20,0,0,1,8.93-2.51h.08a9.91,9.91,0,0,1,5.17,1.49l0,0a6.91,6.91,0,0,1,2,2.28,6.79,6.79,0,0,1,.92,2.57,14.41,14.41,0,0,1,0,4.91v.08a27.23,27.23,0,0,1-1.45,4.35c-.34.8-.71,1.6-1.09,2.4a69.85,69.85,0,0,0,7.28-.64,54.89,54.89,0,0,0,15.32-4.53l.07,0a2.22,2.22,0,0,1,3,1.16,2.19,2.19,0,0,1-1.1,3.06,59.63,59.63,0,0,1-16.65,4.85,60.85,60.85,0,0,1-10.58.72c-.21.31-.38.55-.52.74a31,31,0,0,1-5.84,6.75,29.51,29.51,0,0,1-3.94,2.69,11.64,11.64,0,0,1-5,1.73Zm-1.51-17a21.46,21.46,0,0,0-2.1,3.76,12.8,12.8,0,0,0-1.19,4.26v.08a7.71,7.71,0,0,0,0,2.3,6.16,6.16,0,0,0,.89,2.35,4.16,4.16,0,0,0,2,1.5,5.78,5.78,0,0,0,2.35.32,9.19,9.19,0,0,0,4-1.4l.15-.08-.08,0-.08,0a9.1,9.1,0,0,1-4,.23A3.74,3.74,0,0,1,79.74,84a4.88,4.88,0,0,1-.34-3.37,11.49,11.49,0,0,1,1.09-3.54,24.23,24.23,0,0,1,2-3.29,1.77,1.77,0,0,1,.21-.41l.2-.3a2.56,2.56,0,0,1,.36-.44l.32-.32-.11,0L84.53,71a17.21,17.21,0,0,1,3.4-3l.15-.13a.94.94,0,0,0,.41-.58.49.49,0,0,0-.1-.46l-.1-.17a.69.69,0,0,0-.48-.4.9.9,0,0,0-.7,0,17.34,17.34,0,0,0-4.2,3.39L81.75,71l-.26.34Zm3.83,2.78a23.19,23.19,0,0,0-1.82,3.06A9,9,0,0,0,81.84,81c-.22,1.3,0,1.69,0,1.76l0,.09s.18.26,1.1.43a6.51,6.51,0,0,0,2.86-.16,10.31,10.31,0,0,0,2.94-1.75,29,29,0,0,0,4.08-4.22c-.53-.06-1-.13-1.54-.22A27.45,27.45,0,0,1,84.53,75.11Zm3.1-3.72a27,27,0,0,0,4.42,1c1.16.16,2.43.27,3.77.34a41.06,41.06,0,0,0,2.11-4A18.73,18.73,0,0,0,99,65.32a9.89,9.89,0,0,0,.1-3.39,3,3,0,0,0-1.23-2l-.09-.06a4.4,4.4,0,0,0-2.7-.73,15.23,15.23,0,0,0-6.9,2,9.81,9.81,0,0,0-4.38,4.46,17.24,17.24,0,0,1,2.1-1.38l0,0a3.42,3.42,0,0,1,2.53-.23,3.19,3.19,0,0,1,1.94,1.58,2.9,2.9,0,0,1,.43,2.42,3.38,3.38,0,0,1-1.27,1.92l-.14.13-.11.07A12.22,12.22,0,0,0,87.63,71.39Z"/>
            <path d="M168.78,1.25a3.74,3.74,0,0,1,2.81,1.68,4.72,4.72,0,0,1,.74,2.76,11.1,11.1,0,0,1-.89,3.94c-.13.33-.66,1.38-1.58,3.16A114.38,114.38,0,0,1,163,24.62q-5.93,8.79-16.37,21.6-3.26,4.05-8.78,10.35a126.66,126.66,0,0,1-9.47,9.77A62.85,62.85,0,0,0,126,73.93a20.37,20.37,0,0,0-.59,6,6,6,0,0,0,2,4.43,6.79,6.79,0,0,0,2.17,1.09,10.16,10.16,0,0,0,3,.39,16.67,16.67,0,0,0,6.21-1.58A55,55,0,0,0,150,77.38a75.06,75.06,0,0,0,9.76-9.07.88.88,0,0,1,1.48-.15,1,1,0,0,1,.1,1.53l-.1.1q-12,11.64-21.79,16.37a39,39,0,0,1-6.61,2.37A11.91,11.91,0,0,1,129,89a8,8,0,0,1-4.15-1.28,7.83,7.83,0,0,1-2.76-3.36,11.84,11.84,0,0,1-1.08-4,26.92,26.92,0,0,1,.49-7.4,79.81,79.81,0,0,1,4.54-13.21q2.57-5.62,6.21-12.23,6.51-11.62,14.4-23.17,4.34-6.21,8.08-10.95c1.78-2.23,3.26-4,4.44-5.32a61.17,61.17,0,0,1,5.13-4.84c.59-.45,1.15-.85,1.68-1.18a5.07,5.07,0,0,1,1.08-.49A3.48,3.48,0,0,1,168.78,1.25Zm-.2,7.5a8.07,8.07,0,0,0,.1-2.76,1.24,1.24,0,0,0-.1-.5,1,1,0,0,1-.4.2,5.91,5.91,0,0,0-1.08.89,48.86,48.86,0,0,0-4.54,4.53c-1.71,2-3.12,3.65-4.24,5q-4,5.13-8,10.75a197.36,197.36,0,0,0-14.2,22.68q-3.46,6.51-5.92,12l-.1.3q2.37-2.26,6.31-6.51,3.45-3.75,8.88-10.16a245.86,245.86,0,0,0,16-21.69q2-3.06,3.55-5.72a41.87,41.87,0,0,0,2.86-6A11.84,11.84,0,0,0,168.58,8.75Zm-.3-3.36V5.3l.1.09Z"/>
            <path d="M129.54,90.26H129a9.21,9.21,0,0,1-4.76-1.49,9,9,0,0,1-3.2-3.87,13.25,13.25,0,0,1-1.19-4.44,28.14,28.14,0,0,1,.51-7.73v0a82,82,0,0,1,4.6-13.43c1.73-3.78,3.83-7.92,6.27-12.33,4.35-7.78,9.21-15.6,14.46-23.28,2.9-4.16,5.64-7.86,8.14-11,1.78-2.25,3.29-4.06,4.48-5.39a64,64,0,0,1,5.27-5A19.85,19.85,0,0,1,165.36,1a6.61,6.61,0,0,1,1.32-.61A4.47,4.47,0,0,1,169,0h0a4.91,4.91,0,0,1,3.68,2.26,5.88,5.88,0,0,1,.92,3.44,12.41,12.41,0,0,1-1,4.35c-.1.25-.37.85-1.63,3.28a119.77,119.77,0,0,1-7,12C160,31.16,154.51,38.46,147.54,47c-2.15,2.68-5.12,6.18-8.8,10.39a133.77,133.77,0,0,1-9.34,9.66,61.76,61.76,0,0,0-2.22,7.16,19.51,19.51,0,0,0-.57,5.64,4.83,4.83,0,0,0,1.54,3.59,5.54,5.54,0,0,0,1.74.85,8.81,8.81,0,0,0,2.6.34,15.85,15.85,0,0,0,5.73-1.48,53.56,53.56,0,0,0,11.06-6.74,74.32,74.32,0,0,0,9.58-8.9,2.23,2.23,0,0,1,1.57-.91,2.17,2.17,0,0,1,1.69.66,2.2,2.2,0,0,1,.19,3.24l-.16.16c-8.09,7.83-15.53,13.41-22.12,16.61a39.48,39.48,0,0,1-6.84,2.45A13.4,13.4,0,0,1,129.54,90.26Zm-6.79-17.07a26.31,26.31,0,0,0-.48,7,10.66,10.66,0,0,0,1,3.63,6.46,6.46,0,0,0,2.33,2.85,6.65,6.65,0,0,0,3.51,1.08,10.89,10.89,0,0,0,3.45-.45l1.17-.32a10.54,10.54,0,0,1-1.22.08,11.59,11.59,0,0,1-3.32-.45,8.05,8.05,0,0,1-2.57-1.29A7.21,7.21,0,0,1,124.16,80a22.07,22.07,0,0,1,.61-6.37,65.76,65.76,0,0,1,2.42-7.75l.11-.29.22-.2.18-.16,1.39-4.16c1.65-3.69,3.65-7.77,6-12.1a201.73,201.73,0,0,1,14.28-22.83c2.62-3.73,5.32-7.37,8-10.79,1.13-1.4,2.57-3.11,4.27-5.07a48.88,48.88,0,0,1,4.64-4.64,9.44,9.44,0,0,1,.78-.7V2.89a2.52,2.52,0,0,0-.4.21c-.46.29-1,.66-1.56,1.1a59.54,59.54,0,0,0-5,4.71c-1.13,1.26-2.61,3-4.36,5.24-2.47,3.11-5.17,6.78-8,10.88-5.2,7.61-10,15.37-14.33,23.07-2.41,4.36-4.48,8.44-6.17,12.14A77.58,77.58,0,0,0,122.75,73.19ZM167.46,7.9a49.75,49.75,0,0,0-4,4c-1.67,1.93-3.09,3.61-4.2,5-2.66,3.38-5.34,7-7.94,10.68a200.2,200.2,0,0,0-14.12,22.55c-1,2-2,3.89-2.94,5.74l1.25-1.34c2.28-2.47,5.25-5.88,8.84-10.11a248.69,248.69,0,0,0,15.88-21.57c1.29-2,2.48-3.92,3.52-5.68a41.75,41.75,0,0,0,2.76-5.79l0-.11a10.72,10.72,0,0,0,.79-2.75C167.4,8.31,167.43,8.09,167.46,7.9ZM170,6.63A11.22,11.22,0,0,1,169.8,9h0a15.06,15.06,0,0,1-.64,2.51c.85-1.65,1.08-2.14,1.14-2.28A13,13,0,0,0,171,6.63ZM169.69,5l1.37,1.36q0-.33,0-.63V5.6a3.43,3.43,0,0,0-.57-2,2.51,2.51,0,0,0-1.93-1.1,2.21,2.21,0,0,0-1,.22l-.07,0h0l1.07,1.07.4-.4L169.69,5Z"/>
            <path d="M202.25,69a.86.86,0,0,1,.15,1.43v.1a68,68,0,0,1-9,8.48q-4.05,3.15-9.86,7.1-4.83,3.34-14,9.17-3.65,7-7.49,13.51Q159,114,155.56,119.19a114.22,114.22,0,0,1-7.39,9.87q-2.37,2.76-4.25,4.63a22.89,22.89,0,0,1-5.22,3.94,11.27,11.27,0,0,1-3.45,1.09,5.06,5.06,0,0,1-2,0,6.79,6.79,0,0,1-1.87-.59,5.18,5.18,0,0,1-2.56-2.86,8.69,8.69,0,0,1-.59-3.45,14,14,0,0,1,1.57-6.31,28.2,28.2,0,0,1,3.55-5.23,63.47,63.47,0,0,1,9-8.38q5.72-4.55,20-13.91a2.9,2.9,0,0,1,.49-.34,3.21,3.21,0,0,0,.49-.35q1.58-2.76,14.2-25.44c-1,.85-1.91,1.68-2.76,2.47a102.82,102.82,0,0,1-10,7.49,26,26,0,0,1-5.92,2.86,4.84,4.84,0,0,1-2.26-.1,3.33,3.33,0,0,1-1.88-1.77,6.72,6.72,0,0,1,0-4,29.13,29.13,0,0,1,2.57-6.11c.26-.53.57-1.1.93-1.73s.74-1.3,1.14-2,.72-1.28,1-1.68a1.93,1.93,0,0,1,1.29-1,2.08,2.08,0,0,1,1.67.2,1.9,1.9,0,0,1,1,1.28,2.34,2.34,0,0,1-.2,1.62,1,1,0,0,1-.2.3q-2.26,3-3.55,4.93a27.14,27.14,0,0,0-2.76,5,3.77,3.77,0,0,0-.29,2.07,1.6,1.6,0,0,0,.29.4c.07.06.33.06.79,0A18,18,0,0,0,163.65,80a87.28,87.28,0,0,0,10-7.1c1.58-1.38,3-2.77,4.43-4.15a21.55,21.55,0,0,0,3.75-4.53,1,1,0,0,1,1.53-.45,1,1,0,0,1,.35,1.53q-5.32,13.22-12.53,27,7.11-4.63,11.44-7.59,5.71-4.05,9.67-7.2a54.3,54.3,0,0,0,8.48-8.38A1,1,0,0,1,202.25,69Zm-57.54,57.34A191.3,191.3,0,0,0,158,106.37q1.58-2.57,3.55-5.91-10.85,7.1-18.05,12.92a58.58,58.58,0,0,0-8.58,8.18q-4.63,5.63-4.54,10.26a6.53,6.53,0,0,0,.6,2.46,2.81,2.81,0,0,0,1.57,1.28,4,4,0,0,0,1.09.2,3,3,0,0,0,1-.2,8.09,8.09,0,0,0,2.17-1.08,33.59,33.59,0,0,0,4.15-3.75Q142.85,128.66,144.71,126.29Z"/>
            <path d="M134.21,140.05a6.15,6.15,0,0,1-1.15-.11,8.12,8.12,0,0,1-2.17-.69l-.06,0a6.43,6.43,0,0,1-3.14-3.5,10,10,0,0,1-.68-3.9,15.37,15.37,0,0,1,1.71-6.87,29.27,29.27,0,0,1,3.7-5.45,64.86,64.86,0,0,1,9.16-8.57c3.81-3,10.55-7.7,20-13.92a5.11,5.11,0,0,1,.6-.41l.19-.13c1.08-1.89,4.67-8.32,10.71-19.16-2.59,2.07-5.14,3.93-7.6,5.54a26.77,26.77,0,0,1-6.27,3l-.16,0a6.05,6.05,0,0,1-2.87-.16,4.57,4.57,0,0,1-2.56-2.42l0-.06a7.67,7.67,0,0,1-.06-4.69,30.16,30.16,0,0,1,2.68-6.4c.26-.52.57-1.1,1-1.77s.73-1.28,1.11-2,.73-1.29,1-1.71a3.15,3.15,0,0,1,2-1.6,3.38,3.38,0,0,1,2.61.31,3.15,3.15,0,0,1,1.59,2.07,3.5,3.5,0,0,1-.3,2.46,2.26,2.26,0,0,1-.35.55c-1.48,1.92-2.64,3.53-3.46,4.8a26.47,26.47,0,0,0-2.64,4.77c-.1.33-.17.58-.21.77a18.73,18.73,0,0,0,4.47-2,86.07,86.07,0,0,0,9.78-7c1.52-1.33,3-2.7,4.34-4.06a20.71,20.71,0,0,0,3.53-4.24l0-.06a2.38,2.38,0,0,1,4.32.52,2.29,2.29,0,0,1-.28,1.74c-3,7.45-6.5,15.13-10.41,22.89,3-2,5.5-3.64,7.52-5,3.77-2.67,7-5.07,9.59-7.14a52.94,52.94,0,0,0,8.27-8.18l.05,0A2.23,2.23,0,0,1,203,68h0a2.21,2.21,0,0,1,.94,1.54,2.07,2.07,0,0,1-.3,1.26v.16l-.3.35a69.2,69.2,0,0,1-9.13,8.64c-2.73,2.12-6.07,4.53-10,7.16-3.17,2.2-7.8,5.23-13.76,9-2.39,4.58-4.87,9-7.37,13.28-2,3.48-4.23,7-6.54,10.5a113.73,113.73,0,0,1-7.48,10c-1.61,1.87-3.05,3.45-4.31,4.71a24.79,24.79,0,0,1-5.53,4.17,12.79,12.79,0,0,1-3.84,1.21A7.47,7.47,0,0,1,134.21,140.05Zm-2.27-3a5.57,5.57,0,0,0,1.49.48l.11,0a3.93,3.93,0,0,0,1.49,0h.06a10.56,10.56,0,0,0,3.08-1,22.15,22.15,0,0,0,4.9-3.72c1.2-1.2,2.6-2.73,4.16-4.55a113.31,113.31,0,0,0,7.31-9.74c2.27-3.45,4.45-7,6.47-10.39,2.53-4.29,5-8.82,7.46-13.46l.15-.29.06,0,1.37-2.63c4.3-8.25,8.14-16.44,11.44-24.38l-2.86,5.14c-7.14,12.82-11.67,20.94-13.5,24.2l.19-.12-2.68,4.54c-1.37,2.32-2.53,4.26-3.56,5.94a195.37,195.37,0,0,1-13.4,20c-1.26,1.59-2.53,3.1-3.8,4.5a34.85,34.85,0,0,1-4.32,3.91l-.05,0a9.28,9.28,0,0,1-2.5,1.23,4.12,4.12,0,0,1-1.34.25,5.44,5.44,0,0,1-1.42-.24l-.09,0a4.05,4.05,0,0,1-2-1.44A4,4,0,0,0,131.94,137Zm1-2.63a2.81,2.81,0,0,0,.7.14,2.08,2.08,0,0,0,.6-.14,7.2,7.2,0,0,0,1.85-.92,34.05,34.05,0,0,0,4-3.59c1.2-1.33,2.45-2.81,3.67-4.35h0A194,194,0,0,0,157,105.74c.24-.4.5-.81.75-1.24-5.21,3.54-9.71,6.84-13.41,9.83a57.8,57.8,0,0,0-8.41,8c-2.87,3.49-4.3,6.66-4.25,9.42a5,5,0,0,0,.45,1.94A1.59,1.59,0,0,0,133,134.39Zm22.94-52.07a2,2,0,0,0,1.18,1.11,3.62,3.62,0,0,0,1.58,0A11,11,0,0,0,160,83a9,9,0,0,1-1.39.34,2,2,0,0,1-1.84-.33,2.77,2.77,0,0,1-.53-.72l-.07-.17a4.57,4.57,0,0,1,.29-2.85l0-.05a27.91,27.91,0,0,1,2.89-5.27c.85-1.32,2.07-3,3.6-5l.06-.08a1.18,1.18,0,0,0,.11-.81.73.73,0,0,0-.39-.49.89.89,0,0,0-.75-.08.7.7,0,0,0-.5.39l-.08.14c-.24.36-.56.9-.93,1.58s-.78,1.41-1.15,2-.66,1.17-.9,1.66A28.2,28.2,0,0,0,156,79.16,5.47,5.47,0,0,0,155.91,82.32ZM182,66.16c-.19.25-.4.51-.63.79l.47-.4Z"/>
            <path d="M267.29,3.22A3.39,3.39,0,0,1,268.87,6c0,.13,0,.92-.1,2.36a12.46,12.46,0,0,1-1,3.75c-.59,1.45-1.64,3.58-3.15,6.41q-3.06,5.63-7.4,12a191.19,191.19,0,0,1-17.85,21.7q-4.73,4.92-10.16,9.76c-.13.13-.87.77-2.21,1.92s-2.39,2-3.11,2.61a15.65,15.65,0,0,1-1.68,1.34,18.81,18.81,0,0,0-2.07,1.72,9.3,9.3,0,0,0-1.38,1.78,1.33,1.33,0,0,1-.29.49q-1.39,3.26-2.17,5.72a16.12,16.12,0,0,0-.89,6,3.84,3.84,0,0,0,.59,2c.26.59,1,.92,2.07,1q2.07.2,6.31-1.57a64.83,64.83,0,0,0,11.74-7q3.54-2.56,5.52-4.24c.92-.85,1.77-1.61,2.56-2.26.53-.53.92-.93,1.19-1.19l.59-.69.29-.29v0a1.06,1.06,0,1,1,2,.78,4.65,4.65,0,0,1-.4.6c-.06.06-.2.19-.39.39l-.69.59-1.28,1.19a34.23,34.23,0,0,1-2.77,2.26q-3.73,3-5.52,4.24a109.48,109.48,0,0,1-12,7.5,25.59,25.59,0,0,1-7,2.27,5.88,5.88,0,0,1-4.44-.89,6.09,6.09,0,0,1-2.46-4.14,20.27,20.27,0,0,1,.88-7.69,13.13,13.13,0,0,1,.6-1.88c-.6.59-1.16,1.12-1.68,1.58a16,16,0,0,1-7.1,3.65,5.13,5.13,0,0,1-2.86-.4,3.57,3.57,0,0,1-2.37-2.46,5.81,5.81,0,0,1-.19-2.66l.29-2a21.58,21.58,0,0,1,3.26-7.1,25.26,25.26,0,0,1,5.12-5.62,20.75,20.75,0,0,1,3.26-2.17c.72-.32,1.34-.59,1.87-.79a8.11,8.11,0,0,1,2.27-.59,4.31,4.31,0,0,1,2.86,1,4.19,4.19,0,0,1,1.38,2.37,4.16,4.16,0,0,0,.1.88q3.56-6.8,9.07-15.48a250.44,250.44,0,0,1,16.27-22.88q5-6.4,9.17-10.75a61.72,61.72,0,0,1,5.23-5c1.18-.92,2.23-1.67,3.16-2.26a7.9,7.9,0,0,1,2.07-.89A4,4,0,0,1,267.29,3.22ZM216.7,63.08a2.34,2.34,0,0,0-.39-2.66c-.27-.33-.53-.43-.79-.3a1.43,1.43,0,0,1-.59.2l-1,.3c-.4.19-.82.43-1.28.69a26.16,26.16,0,0,0-2.57,1.77,22.3,22.3,0,0,0-4.43,4.54,14,14,0,0,0-2.57,5.62l-.29,1.48a1.83,1.83,0,0,0,.09.69c.07.13.23.16.5.1a11.72,11.72,0,0,0,5.32-2.37,25.7,25.7,0,0,0,4.64-4.63c.52-.66,1.18-1.55,2-2.67A6.68,6.68,0,0,0,216.7,63.08ZM265.81,8.16A1.26,1.26,0,0,0,265.42,7q-.21-.19-.3,0c.06,0,.06,0,0,.1a6,6,0,0,0-1.09.49,13,13,0,0,0-2.46,1.88,61.2,61.2,0,0,0-4.83,4.73q-3.94,4.24-8.88,10.45Q240.57,34.1,232,47.3q-3.94,6.12-7.1,11.84-1.39,2.46-2.77,5c.73-.53,1.73-1.35,3-2.47s2-1.74,2.22-1.87q5.33-4.74,10.06-9.57c.66-.59,1.56-1.53,2.71-2.81s1.83-2,2-2.22c.46-.46.94-1,1.43-1.57s1.05-1.25,1.68-2L246.68,40q5.32-6.7,8.18-11a115.9,115.9,0,0,0,7.2-11.73c1.45-2.83,2.43-4.9,3-6.22A11.35,11.35,0,0,0,265.81,8.16Z"/>
            <path d="M217,90.44a6.59,6.59,0,0,1-4-1.21,7.34,7.34,0,0,1-3-4.93v0a18.52,18.52,0,0,1,.43-6.13A16.28,16.28,0,0,1,204.21,81h-.08a6.4,6.4,0,0,1-3.47-.47,4.81,4.81,0,0,1-3.08-3.24,7.15,7.15,0,0,1-.25-3.2l.32-2.1a22.89,22.89,0,0,1,3.44-7.5,25.9,25.9,0,0,1,5.38-5.89,21.27,21.27,0,0,1,3.44-2.3l.07,0c.76-.35,1.4-.61,2-.82a8.6,8.6,0,0,1,2.59-.66h.11A5.57,5.57,0,0,1,218.28,56a4.69,4.69,0,0,1,1,1.07c2.15-3.92,4.75-8.28,7.76-13a251.4,251.4,0,0,1,16.35-23c3.35-4.28,6.46-7.93,9.24-10.84a61,61,0,0,1,5.33-5.12c1.27-1,2.33-1.75,3.28-2.36a9,9,0,0,1,2.38-1,5.16,5.16,0,0,1,4.31.4l.08.05a4.62,4.62,0,0,1,2.13,3.72V6c0,.12,0,.53-.1,2.42a13.69,13.69,0,0,1-1.08,4.16c-.61,1.49-1.66,3.63-3.21,6.52-2,3.78-4.56,7.86-7.46,12.14a193.11,193.11,0,0,1-18,21.86c-3.15,3.28-6.58,6.58-10.2,9.81-.1.1-.42.38-2.26,2-1.31,1.11-2.34,2-3.09,2.59A15.42,15.42,0,0,1,223,68.86a18.58,18.58,0,0,0-1.93,1.6,8.2,8.2,0,0,0-1.14,1.45,2.27,2.27,0,0,1-.34.61c-.87,2-1.56,3.88-2.06,5.43a15.15,15.15,0,0,0-.83,5.55,2.75,2.75,0,0,0,.36,1.35l.08.1,0,.12a1.72,1.72,0,0,0,1,.25c.85.08,2.5-.11,5.77-1.48A63.61,63.61,0,0,0,235.4,77c2.32-1.68,4.15-3.08,5.43-4.17.91-.84,1.76-1.6,2.55-2.26q.74-.72,1.11-1.11l.77-.86a2.12,2.12,0,0,1,2.86-1,2.14,2.14,0,0,1,1.28,3l0,.1a6.16,6.16,0,0,1-.51.78l-.13.14-.45.45-.69.59-1.25,1.15c-.24.23-.5.45-.77.68l-.51,1.28v-.85c-.49.41-1,.82-1.58,1.24-2.47,2-4.35,3.39-5.54,4.25a109,109,0,0,1-12.2,7.6,26.92,26.92,0,0,1-7.37,2.39A9.44,9.44,0,0,1,217,90.44Zm-4.49-6.54a4.92,4.92,0,0,0,2,3.32,4.68,4.68,0,0,0,3.55.68l.55-.1a3.79,3.79,0,0,1-.59,0,3.33,3.33,0,0,1-3-1.59,5.1,5.1,0,0,1-.75-2.5,17.53,17.53,0,0,1,.94-6.48c.54-1.68,1.28-3.64,2.21-5.83l.09-.22.17-.17,0-.12.07-.14a10.74,10.74,0,0,1,1.57-2,18.79,18.79,0,0,1,2.22-1.85A17,17,0,0,0,223,65.66l.09-.08c.73-.6,1.77-1.47,3.09-2.6,1.75-1.5,2.08-1.8,2.15-1.86l0,0c3.59-3.19,7-6.46,10.09-9.7a189.46,189.46,0,0,0,17.73-21.55c2.84-4.2,5.31-8.21,7.32-11.91,1.49-2.77,2.53-4.89,3.1-6.29a11.06,11.06,0,0,0,.9-3.36c0-.64.09-2,.09-2.26a2.11,2.11,0,0,0-1-1.73,2.7,2.7,0,0,0-2.31-.18l-.07,0a7,7,0,0,0-1.76.75c-.84.54-1.87,1.29-3,2.19a57,57,0,0,0-5.09,4.9c-2.73,2.86-5.79,6.44-9.1,10.66A251.44,251.44,0,0,0,229.09,45.4c-3.65,5.73-6.69,10.9-9,15.39l-1.61,3.09-.32-1.58a5.38,5.38,0,0,1-.23,1.08,8.06,8.06,0,0,1-1.59,3.2c-.78,1.1-1.46,2-2,2.7a27.06,27.06,0,0,1-4.85,4.84,13,13,0,0,1-5.86,2.6,1.53,1.53,0,0,1-1.81-.76,2.69,2.69,0,0,1-.23-1.24l0-.24.29-1.48a15.22,15.22,0,0,1,2.79-6.11,22.78,22.78,0,0,1,4.66-4.77A24.17,24.17,0,0,1,212,60.27l.05,0c.48-.28.93-.52,1.34-.72l.12-.07.13,0c.24-.06.54-.15.89-.27l.19-.06h.1L215,59a1.8,1.8,0,0,1,2.24.55,3,3,0,0,1,.51.63,5.76,5.76,0,0,1-.07-.69,3,3,0,0,0-.92-1.58,3.12,3.12,0,0,0-2-.71,6.53,6.53,0,0,0-1.85.49c-.53.2-1.12.45-1.81.76a19.4,19.4,0,0,0-3,2,23.78,23.78,0,0,0-4.88,5.35,20.63,20.63,0,0,0-3.07,6.65l-.29,1.92a4.76,4.76,0,0,0,.15,2.09,2.35,2.35,0,0,0,1.59,1.68l.13.06a3.89,3.89,0,0,0,2.15.29,14.83,14.83,0,0,0,6.5-3.38c.48-.42,1-.93,1.59-1.5l3.85-3.84-1.81,5.12c-.37,1.06-.49,1.44-.52,1.57v.06l-.05.16A19.55,19.55,0,0,0,212.49,83.9Zm.8-21.53A22.74,22.74,0,0,0,210.9,64a20.69,20.69,0,0,0-4.23,4.3,13,13,0,0,0-2.37,5.16l-.12.62a12,12,0,0,0,3.81-2,24.69,24.69,0,0,0,4.39-4.4c.52-.64,1.17-1.52,1.93-2.61a5.38,5.38,0,0,0,1.17-2.25l.05-.19c.26-.76.15-1.1,0-1.25a1.89,1.89,0,0,1-.38.09c-.31.1-.58.19-.82.25S213.68,62.14,213.29,62.37Zm5.18,6L221,63.58c.94-1.74,1.87-3.44,2.77-5,2.1-3.82,4.51-7.82,7.14-11.9,5.72-8.82,11.08-16.47,15.94-22.77,3.3-4.16,6.3-7.7,9-10.54a63.89,63.89,0,0,1,4.92-4.83,14.49,14.49,0,0,1,2.66-2,7.12,7.12,0,0,1,.83-.41,1.34,1.34,0,0,1,.77-.42,1.4,1.4,0,0,1,1.21.39A2.41,2.41,0,0,1,267,8.29a12.46,12.46,0,0,1-.87,3.17c-.55,1.38-1.53,3.44-3,6.33a120.77,120.77,0,0,1-7.28,11.87c-1.91,2.9-4.68,6.64-8.24,11.11-.35.43-.83,1-1.46,1.72s-1.17,1.37-1.66,2-1,1.17-1.51,1.66c-.08.08-.45.47-2,2.17-1.16,1.28-2.09,2.25-2.78,2.87-3.14,3.21-6.54,6.44-10.09,9.6l-.13.1c-.06,0-.41.31-2.1,1.78-1.3,1.13-2.34,2-3.09,2.53Zm46-59.61a11.83,11.83,0,0,0-2,1.6A61.53,61.53,0,0,0,257.64,15c-2.6,2.79-5.56,6.29-8.81,10.38C244,31.62,238.7,39.22,233,48c-2.44,3.78-4.69,7.5-6.67,11.06l.24-.18c3.5-3.11,6.84-6.3,9.94-9.46l.05,0c.63-.57,1.51-1.48,2.62-2.72s1.85-2.05,2.07-2.27c.43-.43.89-.93,1.36-1.49s1.06-1.26,1.69-2,1.09-1.27,1.41-1.66c3.49-4.39,6.22-8.08,8.1-10.94A116.91,116.91,0,0,0,261,16.65c1.42-2.76,2.4-4.82,2.91-6.09A13.6,13.6,0,0,0,264.46,8.74Z"/>
            <path d="M273.94,68.9a.91.91,0,0,1,.15,1.48c0,.07,0,.1-.1.1q-1.19,1.18-5.62,4.93c-.79.72-2.69,2.27-5.72,4.63a90.15,90.15,0,0,1-12.52,8.19,16.13,16.13,0,0,1-3.75,1.38,6.58,6.58,0,0,1-2.27.2,6.33,6.33,0,0,1-2.46-.5,3.91,3.91,0,0,1-2.27-2,6,6,0,0,1-.79-2.66,12.16,12.16,0,0,1,.69-4.34,36.18,36.18,0,0,1,3.26-7.1c.78-1.32,2.1-3.39,3.94-6.21a1.92,1.92,0,0,1,1.33-.94,2.25,2.25,0,0,1,1.63.35,1.85,1.85,0,0,1,.89,1.23,2.06,2.06,0,0,1-.2,1.53c-.46.85-1.12,2-2,3.45s-1.42,2.4-1.68,2.86a53.22,53.22,0,0,0-3,6.21,8.12,8.12,0,0,0-.59,2.76,2.36,2.36,0,0,0,.1.84,1.07,1.07,0,0,0,.39.44c1.12.73,3,.66,5.72-.19a31.34,31.34,0,0,0,6.41-3c1.78-1.12,3.78-2.47,6-4C263,77.51,264.89,76,267.19,74q1.19-1,2.76-2.37a29.59,29.59,0,0,0,2.37-2.56l.1-.1A1,1,0,0,1,273.94,68.9ZM253.68,63c-.4.79-1,.66-1.68-.39a4.13,4.13,0,0,1-.59-2.76q.5-2.27,3.45-5.43c.2-.19.5-.09.89.3a5.06,5.06,0,0,1,1,1.53,1.81,1.81,0,0,1,.09,1.53,10.75,10.75,0,0,1-1.52,2.71A29.28,29.28,0,0,0,253.68,63Z"/>
            <path d="M244.69,91.06c-.21,0-.42,0-.63,0a7.75,7.75,0,0,1-2.85-.57,5.17,5.17,0,0,1-2.92-2.55,7.25,7.25,0,0,1-.93-3.16,13.34,13.34,0,0,1,.75-4.81,37.84,37.84,0,0,1,3.36-7.32c.8-1.35,2.1-3.4,4-6.27a3.12,3.12,0,0,1,2.15-1.48,3.43,3.43,0,0,1,2.49.51,3.08,3.08,0,0,1,1.44,2,3.34,3.34,0,0,1-.33,2.43c-.45.84-1.12,2-2,3.46s-1.41,2.39-1.67,2.85a54.23,54.23,0,0,0-2.87,6,6.93,6.93,0,0,0-.52,2.33c0,.13,0,.23,0,.29.51.28,1.74.53,4.6-.38a30,30,0,0,0,6.16-2.85c1.72-1.08,3.73-2.43,5.93-4,1.4-1,3.26-2.53,5.53-4.47.77-.64,1.66-1.4,2.72-2.33a27.27,27.27,0,0,0,2.22-2.4l.19-.21a2.2,2.2,0,0,1,3.21-.2h0a2.29,2.29,0,0,1,.9,1.58,2.13,2.13,0,0,1-.45,1.46,1.32,1.32,0,0,1-.49.53c-.88.86-2.69,2.44-5.5,4.82-.83.75-2.72,2.28-5.78,4.68a92.34,92.34,0,0,1-12.7,8.3,18.2,18.2,0,0,1-4,1.49A7.7,7.7,0,0,1,244.69,91.06Zm3.5-23.77H248a.7.7,0,0,0-.5.38c-1.85,2.83-3.17,4.91-3.94,6.19a35.23,35.23,0,0,0-3.13,6.84,11,11,0,0,0-.64,3.91,4.65,4.65,0,0,0,.63,2.1A2.76,2.76,0,0,0,242,88.15l.08,0a5.26,5.26,0,0,0,2,.39h.1a5.38,5.38,0,0,0,1.85-.16h.05a15.28,15.28,0,0,0,3.47-1.28c.72-.39,1.46-.8,2.19-1.22a23.4,23.4,0,0,1-2.26.83c-3.09,1-5.3,1-6.76.06a2.22,2.22,0,0,1-.86-1,3.63,3.63,0,0,1-.19-1.31,9.12,9.12,0,0,1,.67-3.19,55.44,55.44,0,0,1,3-6.37L247.1,72c.84-1.42,1.49-2.57,1.94-3.41a.82.82,0,0,0,.09-.66.6.6,0,0,0-.3-.44A1.15,1.15,0,0,0,248.19,67.29Zm4.89-2.57A2.8,2.8,0,0,1,251,63.29l0,0a5.36,5.36,0,0,1-.76-3.58l0-.09c.38-1.75,1.6-3.72,3.75-6,.15-.15,1.24-1.15,2.66.27a5.76,5.76,0,0,1,1.25,1.92,3,3,0,0,1,.13,2.43,12.08,12.08,0,0,1-1.68,3,26.55,26.55,0,0,0-1.54,2.36h0a1.92,1.92,0,0,1-1.58,1.18ZM252.63,60a2.8,2.8,0,0,0,.32,1.73c.26-.4.66-1,1.34-2a9.12,9.12,0,0,0,1.35-2.31l0-.13.06-.12h0a1.11,1.11,0,0,0-.13-.5,4,4,0,0,0-.44-.8A10.59,10.59,0,0,0,252.63,60Z"/>
            <path d="M315.86,69.35a1,1,0,0,1-.55,1.42A57.63,57.63,0,0,1,299,75.51a58.88,58.88,0,0,1-11,.69c-.4.59-.69,1-.89,1.28A29.53,29.53,0,0,1,281.49,84a27.29,27.29,0,0,1-3.75,2.56,10.4,10.4,0,0,1-4.54,1.58,7.14,7.14,0,0,1-2.86-.39,5.49,5.49,0,0,1-2.56-2,7.33,7.33,0,0,1-1.08-2.86,9.12,9.12,0,0,1,0-2.66A14,14,0,0,1,268,75.61a23.63,23.63,0,0,1,2.27-4c.06-.06.33-.39.79-1a5.18,5.18,0,0,1-.5-1.09,4.82,4.82,0,0,1-.1-2.56,17.89,17.89,0,0,1,.69-2.17,12.82,12.82,0,0,1,6.12-6.41A18.69,18.69,0,0,1,285.63,56a8.75,8.75,0,0,1,4.54,1.28,5.72,5.72,0,0,1,1.67,1.88,5.39,5.39,0,0,1,.79,2.17,13.2,13.2,0,0,1,0,4.53A24.72,24.72,0,0,1,291.25,70q-.88,2.07-2,4.14a68.47,68.47,0,0,0,9.47-.69,55.92,55.92,0,0,0,15.68-4.64A1,1,0,0,1,315.86,69.35ZM285.53,76.4a.21.21,0,0,1,.05-.15l.15-.15a31.93,31.93,0,0,1-3.65-.39,24.62,24.62,0,0,1-7.49-2.17,1,1,0,0,0-.2.24l-.2.3a.45.45,0,0,0-.1.25,23.14,23.14,0,0,0-2,3.3,10.34,10.34,0,0,0-1,3.2,3.88,3.88,0,0,0,.2,2.57,2.6,2.6,0,0,0,2,1.08,7.67,7.67,0,0,0,3.45-.2,11.12,11.12,0,0,0,3.36-2A31.85,31.85,0,0,0,285.53,76.4Zm-13-7.5a18.46,18.46,0,0,1,4.54-3.65,2.2,2.2,0,0,1,1.63-.15,1.93,1.93,0,0,1,1.23,1,1.72,1.72,0,0,1,.3,1.48,2.22,2.22,0,0,1-.89,1.28l-.1.1A15.48,15.48,0,0,0,276,71.86a24,24,0,0,0,6.41,1.77c1.44.2,3,.33,4.63.4a41.47,41.47,0,0,0,2.56-4.73,19.69,19.69,0,0,0,1.19-3.75,11.28,11.28,0,0,0,.1-3.85,4.22,4.22,0,0,0-1.78-2.86,5.54,5.54,0,0,0-3.45-1A16.17,16.17,0,0,0,278.14,60,10.93,10.93,0,0,0,273,65.55C272.42,67.13,272.25,68.24,272.51,68.9Z"/>
            <path d="M272.73,89.38a8.28,8.28,0,0,1-2.8-.48,6.69,6.69,0,0,1-3.15-2.42,8.78,8.78,0,0,1-1.3-3.36,10.61,10.61,0,0,1,0-3,15.54,15.54,0,0,1,1.39-5,24,24,0,0,1,2.37-4.22l.15-.18h0l.2-.26c-.07-.17-.14-.36-.21-.54a5.87,5.87,0,0,1-.13-3.2v-.06A19.92,19.92,0,0,1,270,64.3a14.09,14.09,0,0,1,6.68-7,20,20,0,0,1,8.93-2.51h.07a9.92,9.92,0,0,1,5.18,1.49l0,0a6.87,6.87,0,0,1,2,2.28,6.65,6.65,0,0,1,.93,2.57,14.41,14.41,0,0,1,0,4.91v.08a27.23,27.23,0,0,1-1.45,4.35c-.34.8-.71,1.6-1.09,2.4a69.85,69.85,0,0,0,7.28-.64,54.89,54.89,0,0,0,15.32-4.53l.07,0a2.22,2.22,0,0,1,3,1.16h0a2.19,2.19,0,0,1-1.1,3.06,59.63,59.63,0,0,1-16.65,4.85,61,61,0,0,1-10.58.72c-.21.31-.38.55-.52.74a31,31,0,0,1-5.84,6.75,29.51,29.51,0,0,1-3.94,2.69,11.69,11.69,0,0,1-5,1.73Zm-1.51-17a22.24,22.24,0,0,0-2.11,3.76,13,13,0,0,0-1.19,4.26v.08a7.72,7.72,0,0,0,0,2.3,6.16,6.16,0,0,0,.89,2.35,4.12,4.12,0,0,0,2,1.5,5.59,5.59,0,0,0,2.34.32,9.18,9.18,0,0,0,4-1.4l.14-.08-.07,0-.09,0a9,9,0,0,1-4,.23,3.74,3.74,0,0,1-2.83-1.7,4.92,4.92,0,0,1-.35-3.34,11.74,11.74,0,0,1,1.1-3.57A24.23,24.23,0,0,1,273,73.8a2,2,0,0,1,.21-.41l.2-.3a2.17,2.17,0,0,1,.36-.44l.32-.32-.11,0L275.05,71a17.21,17.21,0,0,1,3.4-3l.15-.13a1,1,0,0,0,.41-.58.49.49,0,0,0-.1-.46l-.1-.17a.69.69,0,0,0-.48-.4.92.92,0,0,0-.71,0,17.53,17.53,0,0,0-4.2,3.39L272.27,71l-.26.34ZM275,75.11a24.21,24.21,0,0,0-1.81,3.06,9,9,0,0,0-.87,2.82V81c-.21,1.25,0,1.64,0,1.71l.05.09s.18.26,1.1.43a6.47,6.47,0,0,0,2.85-.16,10.18,10.18,0,0,0,2.94-1.75,29,29,0,0,0,4.09-4.22c-.54-.06-1.05-.13-1.54-.22A27.53,27.53,0,0,1,275,75.11Zm3.11-3.72a26.85,26.85,0,0,0,4.41,1c1.17.16,2.44.27,3.78.34a38.84,38.84,0,0,0,2.1-4,18.86,18.86,0,0,0,1.11-3.48,10.14,10.14,0,0,0,.1-3.39,3,3,0,0,0-1.24-2l-.08-.06a4.4,4.4,0,0,0-2.7-.73,15.19,15.19,0,0,0-6.9,2,9.81,9.81,0,0,0-4.38,4.46,16.5,16.5,0,0,1,2.1-1.38l.05,0a3.4,3.4,0,0,1,2.52-.23,3.18,3.18,0,0,1,2,1.58,3,3,0,0,1,.43,2.42,3.32,3.32,0,0,1-1.28,1.92L280,70l-.12.07A12.17,12.17,0,0,0,278.15,71.39Z"/>
            <path d="M375,69.1a.94.94,0,0,1-.14,1.48.09.09,0,0,1-.1.1,143.57,143.57,0,0,1-14.89,8.67,51.17,51.17,0,0,1-8.19,3.36,18.81,18.81,0,0,1-4.63.69,7.58,7.58,0,0,1-2.57-.4,6.3,6.3,0,0,1-1.38-.59,3.09,3.09,0,0,1-1.38-1.77,8.27,8.27,0,0,1,0-3.16c.2-.59.46-1.35.79-2.27l1.58-3.84c.06-.27.13-.53.2-.79a10,10,0,0,0-2.27.79,25.69,25.69,0,0,0-7,4.34,35.06,35.06,0,0,0-5.92,5.91,1.31,1.31,0,0,1-.79.5,1.35,1.35,0,0,1-2.07-1.58c.46-1.19,1.05-2.55,1.77-4.09L330.11,72c.65-1.42,1.18-2.68,1.57-3.8a6.15,6.15,0,0,0,.5-2.46,1.31,1.31,0,0,0-.2-.4.32.32,0,0,0-.2-.1l-.1-.1a4.44,4.44,0,0,0-2.27.79,23.38,23.38,0,0,0-2.66,1.68,75.61,75.61,0,0,0-10,9q-2,2.18-4.44,5.23a35.74,35.74,0,0,0-3.64,5.52.93.93,0,0,1-.5.5,1.6,1.6,0,0,1-2.17.88,2.39,2.39,0,0,1-.83-.54,2,2,0,0,1-.5-.84,1.44,1.44,0,0,1,.05-1,49.39,49.39,0,0,1,4.34-10c.79-1.52,1.68-3.06,2.66-4.64s2-3.12,3-4.44a2,2,0,0,1,1.38-.83,2.18,2.18,0,0,1,1.63.34,2,2,0,0,1,.89,1.38,1.87,1.87,0,0,1-.45,1.58v.1A49.6,49.6,0,0,0,315.31,74q-1.28,1.88-2.46,4c.59-.72,1.34-1.67,2.27-2.86a98.3,98.3,0,0,1,9.46-10.35,18.44,18.44,0,0,1,3.06-2.17c.59-.33,1.18-.63,1.77-.89a6.86,6.86,0,0,1,2.47-.49,4.1,4.1,0,0,1,1.53.44,7.05,7.05,0,0,1,1.23.84,4,4,0,0,1,1.28,2.56,10.61,10.61,0,0,1-.59,4.24,55.69,55.69,0,0,1-2.86,5.92l.54-.54.64-.64c.33-.33,1-.94,1.93-1.83s1.81-1.62,2.56-2.22,1.5-1.14,2.22-1.67a17.93,17.93,0,0,1,2.17-1.19,8.3,8.3,0,0,1,2.86-.59l1,.2a3.62,3.62,0,0,1,1.28.79,3.24,3.24,0,0,1,.79,2.46,8.72,8.72,0,0,1-.59,2.67c-.27.59-.63,1.36-1.09,2.31s-.72,1.5-.79,1.63c-.26.72-.46,1.32-.59,1.78a1.52,1.52,0,0,0-.15.44,4.13,4.13,0,0,1-.1.44c0,.14,0,.2.05.2a.57.57,0,0,0,.4.2,5.23,5.23,0,0,0,1.58.39,15.77,15.77,0,0,0,3.84-.29,36.59,36.59,0,0,0,7.89-2.57,71,71,0,0,0,14.6-8.38h.09A.86.86,0,0,1,375,69.1Z"/>
            <path d="M306.76,90.08a3.5,3.5,0,0,1-1.11-.19l-.07,0a3.68,3.68,0,0,1-1.24-.82,3.22,3.22,0,0,1-.81-1.35,2.73,2.73,0,0,1,.06-1.74A50.93,50.93,0,0,1,308,75.8c.78-1.5,1.7-3.09,2.7-4.69s2-3.15,3-4.49a3.25,3.25,0,0,1,2.19-1.35,3.47,3.47,0,0,1,2.51.53,3.2,3.2,0,0,1,1.4,2.09q2.28-2.46,4-4A19.46,19.46,0,0,1,327,61.61c.62-.34,1.25-.66,1.87-.94l.06,0a8.13,8.13,0,0,1,2.91-.57H332a5.41,5.41,0,0,1,2,.59,9.08,9.08,0,0,1,1.44,1l0,0A5.25,5.25,0,0,1,337.15,65a11.91,11.91,0,0,1-.64,4.76l0,.07v0l.9-.74c.75-.58,1.51-1.15,2.26-1.7l.06,0A19,19,0,0,1,342,66.1l.08,0a9.55,9.55,0,0,1,3.29-.67l.2,0q.63.1,1.08.21l.14.05a4.7,4.7,0,0,1,1.72,1.07l0,0a4.39,4.39,0,0,1,1.11,3.34,9.78,9.78,0,0,1-.66,3l0,.09c-.26.58-.62,1.35-1.1,2.35l-.76,1.57q-.36,1-.54,1.62a4.49,4.49,0,0,0,.69.12,14.54,14.54,0,0,0,3.51-.27,35.74,35.74,0,0,0,7.62-2.48,70.27,70.27,0,0,0,14.35-8.24l.33-.25h.12a2,2,0,0,1,1.27-.29,2.22,2.22,0,0,1,1.55,1h0a2.15,2.15,0,0,1-.15,3,1.24,1.24,0,0,1-.56.45,142.92,142.92,0,0,1-14.87,8.66,52.56,52.56,0,0,1-8.4,3.43c-3.39.88-6,1-7.92.29a7.78,7.78,0,0,1-1.61-.7A4.35,4.35,0,0,1,340.57,81l0-.08a9.49,9.49,0,0,1,0-3.64l.05-.21c.2-.6.47-1.36.8-2.29l0-.06.88-2.13a25,25,0,0,0-6.42,4,34.89,34.89,0,0,0-5.75,5.74,2.51,2.51,0,0,1-1.21.87,2.6,2.6,0,0,1-3.77-3.18c.47-1.2,1.07-2.59,1.8-4.14L329,71.49c.64-1.39,1.16-2.63,1.53-3.69a9.28,9.28,0,0,0,.36-1.22A9,9,0,0,0,330,67l0,0a22,22,0,0,0-2.51,1.59,74.61,74.61,0,0,0-9.77,8.81c-1.26,1.39-2.74,3.13-4.38,5.15a36.78,36.78,0,0,0-3.47,5.23,2,2,0,0,1-.71.9A2.73,2.73,0,0,1,306.76,90.08Zm-.29-2.51c.39.12.47.05.64-.29l.18-.36.33-.17a37.34,37.34,0,0,1,3.75-5.67q1.08-1.33,2-2.49l-1.64-1.11a47.57,47.57,0,0,1,2.51-4.13c.91-1.45,1.81-2.76,2.66-3.88v-.14l.3-.34a.66.66,0,0,0,.16-.58.79.79,0,0,0-.36-.56,1,1,0,0,0-.74-.15.86.86,0,0,0-.58.34c-.91,1.3-1.89,2.78-2.92,4.39S311,75.49,310.19,77A47.84,47.84,0,0,0,306,86.7l0,.11a.24.24,0,0,0,0,.18.74.74,0,0,0,.19.32A1.26,1.26,0,0,0,306.47,87.57Zm36.46-7.28a1.83,1.83,0,0,0,.83,1.06,5.13,5.13,0,0,0,1.08.47l.08,0c1.43.52,3.64.41,6.47-.33a40.23,40.23,0,0,0,5.12-1.93,34.65,34.65,0,0,1-5.27,1.48,17.23,17.23,0,0,1-4.14.31H347a6.58,6.58,0,0,1-1.76-.42,1.86,1.86,0,0,1-.76-.36,1.12,1.12,0,0,1-.34-.31A1.37,1.37,0,0,1,344,79l.08-.38a4.21,4.21,0,0,1,.2-.63c.14-.47.34-1.06.59-1.76l.05-.12c.07-.13.33-.67.79-1.62s.8-1.68,1-2.24a7,7,0,0,0,.5-2.21V70a2,2,0,0,0-.46-1.53A2.28,2.28,0,0,0,346,68a3.86,3.86,0,0,0-3,.35,18,18,0,0,0-1.95,1.07c-.71.52-1.44,1.07-2.15,1.62s-1.2,1-1.89,1.61a28.94,28.94,0,0,1,4.54-2.43,11.51,11.51,0,0,1,2.51-.86L346,69l-.48,1.89c-.07.26-.13.52-.2.78l-.05.17-1.57,3.82c-.3.85-.55,1.55-.73,2.12A7,7,0,0,0,342.93,80.29Zm-15.57.8.08,0,.06,0h0l.24-.21.29-.06,3.33-6.18A58,58,0,0,0,334.17,69a9.56,9.56,0,0,0,.53-3.69,2.78,2.78,0,0,0-.87-1.78,5.42,5.42,0,0,0-1-.68,2.8,2.8,0,0,0-1-.3,5.59,5.59,0,0,0-1.92.4c-.55.25-1.11.52-1.65.83a16.91,16.91,0,0,0-2.85,2,78,78,0,0,0-6.89,7.31A72.31,72.31,0,0,1,326,66.63a23.13,23.13,0,0,1,2.82-1.78,5.11,5.11,0,0,1,3-.92l.41.06.2.2a1.85,1.85,0,0,1,.38.28,2.14,2.14,0,0,1,.5.88l.06.24a7,7,0,0,1-.56,3,42,42,0,0,1-1.62,3.91L329.15,77c-.71,1.51-1.29,2.86-1.74,4l0,.07Zm19-1.46v0Z"/>
            <path d="M408.06,69a.87.87,0,0,1,.15,1.43v.1q-4.65,5.33-13.81,9.07-3.94,1.58-14,4.54a18.36,18.36,0,0,1,.39,4.53,17.08,17.08,0,0,1-3.06,8.78,12,12,0,0,1-8.28,5,5.59,5.59,0,0,1-1.18.1H367a8.33,8.33,0,0,1-6.61-4.34,8.12,8.12,0,0,1-.69-2.66,7.46,7.46,0,0,1,.39-2.67,7.91,7.91,0,0,1,2.86-3.94,24.26,24.26,0,0,1,3.65-2.27,30.46,30.46,0,0,1,4-1.58q1.86-.69,4.83-1.48c-.2-.85-.4-1.61-.59-2.26q-.3-.69-.84-2.37c-.36-1.12-.68-2.12-.94-3s-.52-1.76-.79-2.61a22.76,22.76,0,0,1-.39-8.88,11.5,11.5,0,0,1,4.93-8.28,7.41,7.41,0,0,1,7.89-.39,6.2,6.2,0,0,1,2.07,2.07,6.88,6.88,0,0,1,.69,5,8.94,8.94,0,0,1-2.07,4.24.92.92,0,0,1-1.48.09,1.09,1.09,0,0,1-.3-1.28v-.1a7.35,7.35,0,0,0,.89-3.25,4.3,4.3,0,0,0-.79-2.76,2.66,2.66,0,0,0-2.07-.89,4.36,4.36,0,0,0-2.47.79,7.08,7.08,0,0,0-2.86,5.42,17.91,17.91,0,0,0,.5,7.1q.19.8,2.46,7.6a21.89,21.89,0,0,1,.79,2.46A111,111,0,0,0,393.71,78q8.58-3.45,12.82-8.87A1,1,0,0,1,408.06,69Zm-39.2,29a7.11,7.11,0,0,0,5-3.2,12.21,12.21,0,0,0,2.17-6.46,17,17,0,0,0-.3-3q-2.76.88-4.53,1.58a21.12,21.12,0,0,0-3.65,1.58,10.56,10.56,0,0,0-3,2.17,5.06,5.06,0,0,0-1.23,2.9,3.51,3.51,0,0,0,.64,2.62,5.1,5.1,0,0,0,2.07,1.67,8.51,8.51,0,0,0,1.18.3l.79-.1A2.45,2.45,0,0,0,368.86,98Z"/>
            <path d="M368.27,103.76H366.9a9,9,0,0,1-3.09-.8,9.23,9.23,0,0,1-4.53-4.2l0-.08a9.68,9.68,0,0,1-.79-3.06v-.09a8.56,8.56,0,0,1,.46-3.07,9.12,9.12,0,0,1,3.27-4.52A24.85,24.85,0,0,1,366,85.56a32.94,32.94,0,0,1,4.13-1.66c1-.36,2.25-.76,3.74-1.18l-.28-1c-.21-.51-.5-1.32-.85-2.4s-.67-2.13-.94-3-.52-1.75-.79-2.6l0-.08a24.2,24.2,0,0,1-.41-9.35,12.73,12.73,0,0,1,5.47-9.12,9.41,9.41,0,0,1,6-1.48,9.27,9.27,0,0,1,3.11,1,7.48,7.48,0,0,1,2.52,2.49,8.1,8.1,0,0,1,.87,6,10.15,10.15,0,0,1-2.36,4.8,2.29,2.29,0,0,1-1.56.84,2.25,2.25,0,0,1-1.65-.63L383,68.1a2.32,2.32,0,0,1-.66-2.37v-.18l.13-.26a6.21,6.21,0,0,0,.76-2.7,3.27,3.27,0,0,0-.5-2,1.43,1.43,0,0,0-1.13-.45,3.1,3.1,0,0,0-1.78.59,5.81,5.81,0,0,0-2.32,4.52v.06a16.77,16.77,0,0,0,.47,6.61c.07.29.48,1.63,2.43,7.47.16.41.32.88.48,1.39a103.7,103.7,0,0,0,12.39-4c5.5-2.21,9.64-5.07,12.32-8.49l0,0a2.24,2.24,0,0,1,3.21-.32h0a2.23,2.23,0,0,1,.93,1.54,2.07,2.07,0,0,1-.3,1.26v.17l-.3.35c-3.21,3.68-8,6.84-14.27,9.4-2.53,1-6.92,2.45-13.06,4.27a18.88,18.88,0,0,1,.21,3.72,18.43,18.43,0,0,1-3.28,9.43,13.21,13.21,0,0,1-9.06,5.53A6.65,6.65,0,0,1,368.27,103.76ZM367,101.3h1.24a3.57,3.57,0,0,0,.89-.07l.11,0a11.14,11.14,0,0,0,4.27-1.51,11,11,0,0,0,3.19-3,16,16,0,0,0,2.83-8.15,16.72,16.72,0,0,0-.37-4.19L379,83.23h0l-.16-.59a23.45,23.45,0,0,0-.74-2.33l0-.06c-2.28-6.84-2.44-7.48-2.49-7.69A19,19,0,0,1,375,65a8.26,8.26,0,0,1,3.39-6.29,5.6,5.6,0,0,1,3.16-1,3.89,3.89,0,0,1,3,1.3l0,.05a5.48,5.48,0,0,1,1.06,3.53,7.87,7.87,0,0,1-.57,2.81,8,8,0,0,0,1.09-2.76,5.64,5.64,0,0,0-.54-4.16A5.07,5.07,0,0,0,384,56.85a6.74,6.74,0,0,0-2.22-.73,6.85,6.85,0,0,0-4.41,1.11c-2.38,1.57-3.81,4-4.36,7.43A21.66,21.66,0,0,0,373.4,73c.26.84.52,1.71.78,2.58s.58,1.89.93,3c.43,1.33.67,2,.8,2.26l0,.13c.2.68.41,1.47.61,2.35l.1.46.06,0,.25,1.4a19.41,19.41,0,0,1,.31,3.17v.07a13.52,13.52,0,0,1-2.39,7.1,8.37,8.37,0,0,1-5.78,3.7,3.52,3.52,0,0,1-1,.12l-.9.12-.17,0a9.49,9.49,0,0,1-1.37-.35l-.13,0A6.36,6.36,0,0,1,363.05,97a4.68,4.68,0,0,1-.89-3.47,6.36,6.36,0,0,1,1.49-3.56,6.57,6.57,0,0,0-2.39,3.29l0,.1a6.09,6.09,0,0,0-.31,2.16,7.27,7.27,0,0,0,.57,2.18,6.67,6.67,0,0,0,3.33,3A6.54,6.54,0,0,0,367,101.3Zm-.48-4.55a7.2,7.2,0,0,0,.77.19l.75-.08a1.51,1.51,0,0,0,.4,0l.23,0a5.89,5.89,0,0,0,4.18-2.69,11,11,0,0,0,1.95-5.79c0-.39,0-.83-.08-1.29-1.2.4-2.23.77-3.08,1.1a20.85,20.85,0,0,0-3.48,1.5,9.57,9.57,0,0,0-2.66,1.93,3.85,3.85,0,0,0-.92,2.19,2.35,2.35,0,0,0,.38,1.73l0,0A4.1,4.1,0,0,0,366.55,96.75Z"/>
            <path d="M177.11,112.75v-.67h6.17v.67l-2.89.24H180Zm3.08,14.38V128h-3.08v-.67l2.89-.24Zm-.7-15h1.41c-.06,2.43-.06,4.89-.06,7.87v1.24c0,2,0,4.45.06,6.85h-1.41c.06-2.42.06-4.89.06-7.34v-1.28C179.55,117,179.55,114.49,179.49,112.08Zm9.18,11.86-.24,4.1h-8.24v-.79h7.64l-.73.79.66-4.1Z"/>
            <path d="M186.73,128.81l.08-.52h-9.95v-1.14l2.41-.2c0-2.08,0-4.19,0-6.25v-1.28c0-2.06,0-4.18,0-6.24l-2.41-.2v-1.14h6.67V113l-2.41.2c0,2.06,0,4.19,0,6.77v1.24c0,1.7,0,3.75,0,5.81H187l.53-3.31h1.38l-.26,4.6h-1.46Zm.93-1h.54l0-.62Zm-6.52,0h5.75l.05-.29h-5.81A2.81,2.81,0,0,0,181.14,127.79Zm-.7,0h.2v-.29h-.2Zm-.69,0h.2v-.41l-.2,0Zm-2.4,0h1.9c0-.11,0-.23,0-.35l-1.91.16Zm10.17-.79h.73l.16-2.81H188Zm-7.08,0h.19c0-2.06,0-4.11,0-5.81V120c0-2.56,0-4.68,0-6.73l-.22,0H180l-.24,0c0,2,0,4.16,0,6.2v1.28c0,2,0,4.14,0,6.2l.68,0Zm-.69-14.28.27,0,.62,0v-.4h-.89Zm1.39-.39c0,.12,0,.24,0,.35l1.91-.16v-.19Zm-3.79.19,1.91.16c0-.11,0-.23,0-.35h-1.9Z"/>
            <path d="M194.43,122a36.85,36.85,0,0,1,3.78-1v.6a29.88,29.88,0,0,0-3.57,1c-2,.76-2.64,1.67-2.64,2.68a2,2,0,0,0,2.19,2.08c1.14,0,2-.56,3.5-2l.35-.31.13.55-.4.42c-1.45,1.55-2.44,2.3-4,2.3a2.75,2.75,0,0,1-3-2.85C190.76,124,191.76,122.87,194.43,122Zm3.2,3.81v-5.35c0-2.5-.85-3.13-2.61-3.13a4.56,4.56,0,0,0-2.65.85l.76-.66-.51,1.78c-.14.5-.4.74-.83.74a.69.69,0,0,1-.74-.65c.48-1.77,2.06-2.77,4.2-2.77,2.36,0,3.54,1.06,3.54,3.69v5.23c0,1.54.39,2,1.06,2a1.44,1.44,0,0,0,1-.45l.33.41a2,2,0,0,1-1.67.87C198.28,128.32,197.68,127.37,197.63,125.76Z"/>
            <path d="M193.77,128.59a3,3,0,0,1-3.26-3.09c0-1.72,1.15-2.85,3.84-3.78h0a31.18,31.18,0,0,1,3-.82v-.49c0-2.43-.79-2.88-2.36-2.88a4.1,4.1,0,0,0-1.76.38l-.4,1.41a1.07,1.07,0,0,1-1.07.92.94.94,0,0,1-1-.86v-.1c.5-1.85,2.16-3,4.44-3,2.59,0,3.79,1.25,3.79,3.94v5.23c0,1.75.53,1.75.81,1.75a1.2,1.2,0,0,0,.82-.39l.19-.16.62.75-.12.16a2.31,2.31,0,0,1-1.87,1c-.65,0-1.67-.27-2-1.87C196.24,128,195.25,128.59,193.77,128.59Zm.74-6.41C192,123,191,124,191,125.5a2.5,2.5,0,0,0,2.77,2.6c1.41,0,2.33-.65,3.63-2V126a4.73,4.73,0,0,1-3.2,1.6,2.21,2.21,0,0,1-2.44-2.32c0-1.26.89-2.18,2.81-2.91a25.48,25.48,0,0,1,2.82-.86v-.1C196.23,121.67,195.29,121.92,194.51,122.18Zm3.4,4.08c.15,1.2.68,1.81,1.58,1.81a1.77,1.77,0,0,0,1.35-.62l-.05-.06a1.51,1.51,0,0,1-.94.35c-1.16,0-1.31-1.21-1.31-2.25v-5.23c0-2.41-1-3.44-3.29-3.44a5.37,5.37,0,0,0-1.76.27l-.06.22A4.7,4.7,0,0,1,195,117c2.08,0,2.85.91,2.85,3.37v.38l.29-.06.3-.06v1.1l-.2,0-.39.09v3l.31-.28.26,1.09-.5.52Zm-.53-4.24a26,26,0,0,0-2.65.81c-2.23.85-2.49,1.8-2.49,2.45a1.73,1.73,0,0,0,1.95,1.83c1,0,1.74-.42,3.19-1.76Zm.49,3.54v0l0,0v0Zm0-4.26v.09l.09,0v-.09Zm-6.57-2a.45.45,0,0,0,.49.4c.26,0,.46-.1.59-.57l.27-.93-.14.08-.3-.38.65-.58A3.21,3.21,0,0,0,191.3,119.35Z"/>
            <path d="M204.4,128c0-1.06.07-3.5.07-5v-1.14c0-1.51,0-2.74-.07-3.84l-2.07-.09v-.61l2.88-.75.28.18.15,2.63v3.62c0,1.47,0,3.91.07,5Zm3.11-.62V128h-5.07v-.62l2.46-.27h.32Zm5.56-6.7v2.35c0,1.51,0,3.91.07,5h-1.3c0-1.06.07-3.46.07-5v-2.28c0-2.33-.81-3.15-2.22-3.15-1.08,0-2.5.47-4.23,2.32h-.41v-.73h.74l-.55.23c1.56-2,3.34-2.89,4.91-2.89C212,116.57,213.07,117.7,213.07,120.72Zm-.41,6.43,2.28.27V128h-5.07v-.62l2.47-.27Z"/>
            <path d="M215.19,128.29h-5.56V127.2l2-.22c0-1.22,0-2.86,0-3.91v-2.28c0-2.56-1-2.91-2-2.91a4.68,4.68,0,0,0-2.8,1.1H207l-.3.13a11.38,11.38,0,0,0-.85.76v3.2c0,1.05,0,2.69,0,3.91l1.83.22v1.09h-5.56V127.2l2-.22c0-1.22,0-2.86,0-3.91v-1.14c0-1.39,0-2.54-.06-3.6l-2.09-.09v-1l3.17-.83.48.31.1,1.74a6.22,6.22,0,0,1,4.32-2.1c2.13,0,3.17,1.44,3.17,4.4v2.35c0,1.05,0,2.69,0,3.91l1.83.22Zm-1.81-.5h1.31v-.15l-1.32-.16C213.37,127.59,213.38,127.7,213.38,127.79Zm-1.29,0h.8c0-.11,0-.24,0-.37l-.23,0h-.3l-.24,0C212.1,127.55,212.1,127.68,212.09,127.79Zm-2,0h1.48c0-.1,0-.2,0-.32l-1.49.17Zm-4.17,0h1.31v-.15l-1.32-.16A3,3,0,0,0,206,127.79Zm-1.29,0h.79c0-.11,0-.24,0-.37l-.25,0h-.29l-.23,0C204.67,127.55,204.66,127.68,204.66,127.79Zm-2,0h1.48c0-.1,0-.2,0-.32l-1.49.17Zm2.53-.89.21,0c0-1.22,0-2.82,0-3.85V120.2h-.59v-.29l-.1,0c0,.61,0,1.26,0,2v1.14c0,1,0,2.63,0,3.85l.2,0Zm4.47-9.51c1.68,0,2.46,1.08,2.46,3.4v2.28c0,1,0,2.63,0,3.85l.19,0h.36l.19,0c0-1.22,0-2.82,0-3.85v-2.35c0-3.46-1.42-3.9-2.67-3.9A6,6,0,0,0,206,119h.14A5.56,5.56,0,0,1,209.69,117.39Zm-7.12.38,2.07.08v.23c0,.53,0,1.08,0,1.66l.1-.13V119h.51l.05-.06-.11-2-.08-.06-2.6.68Zm2.73,1.94h.06l0,0h0Z"/>
            <path d="M226,130.19c0-1.08-.61-1.94-2.47-1.94h-2.87a10.88,10.88,0,0,1-1.52-.11v-.09c-1-.22-1.57-.79-1.57-1.67s.67-1.8,2-2.92l.36.29c-.83.88-1.27,1.45-1.27,2.21s.49,1.16,1.88,1.16h3.28c2.18,0,3.33,1,3.33,2.82s-1.8,3.85-5.45,3.85c-3.16,0-4.85-1.25-4.85-3,0-1.36,1-2.32,2.78-3.07l.14.21c-1.14.81-1.71,1.49-1.71,2.63,0,1.66,1.37,2.51,3.7,2.51C224.51,133,226,131.76,226,130.19Zm-4.59-13.62a3.72,3.72,0,0,1,4,3.9,4,4,0,1,1-4-3.9Zm-2.88,3.9c0,1.91,1.13,3.24,2.84,3.24s2.9-1.35,2.9-3.27a2.89,2.89,0,0,0-2.85-3.2A2.92,2.92,0,0,0,218.51,120.47Zm8.29-3.8.35.23v1h-3.41v-.43Z"/>
            <path d="M221.64,134c-3.14,0-5.09-1.27-5.09-3.3a3.15,3.15,0,0,1,1.78-2.71,1.8,1.8,0,0,1-1-1.65,3.57,3.57,0,0,1,1.42-2.54,4.2,4.2,0,0,1,2.67-7.52,4.54,4.54,0,0,1,2.73.83l2.72-.75.56.37v1.41h-2.34a4.34,4.34,0,0,1,.61,2.29,4,4,0,0,1-4.29,4.15,5.11,5.11,0,0,1-1.71-.28,2.37,2.37,0,0,0-.82,1.62c0,.23,0,.92,1.63.92h3.28c2.31,0,3.58,1.09,3.58,3.06S225.55,134,221.64,134Zm-2.92-5.67a2.75,2.75,0,0,0-1.68,2.37c0,1.75,1.72,2.8,4.6,2.8,3.58,0,5.2-1.86,5.2-3.6s-1-2.57-3.08-2.57h-3.28c-1.76,0-2.12-.77-2.12-1.41a2.75,2.75,0,0,1,.83-1.83l0,0a3.31,3.31,0,0,0-1.36,2.27,1.4,1.4,0,0,0,1.08,1.35c.19-.1.39-.2.6-.29l.19-.08.4.58-.06,0c.21,0,.43,0,.64,0h2.87c2.36,0,2.71,1.37,2.71,2.19,0,1.87-1.77,3.08-4.52,3.08-2.51,0-3.95-1-3.95-2.76A2.77,2.77,0,0,1,218.72,128.37Zm.68,0a2.48,2.48,0,0,0-1.16,2.09c0,2,2.17,2.26,3.46,2.26,2.45,0,4-1,4-2.58,0-1.14-.73-1.69-2.22-1.69h-2.87A10.06,10.06,0,0,1,219.4,128.42Zm.63-4.48a4.79,4.79,0,0,0,1.35.19,3.53,3.53,0,0,0,3.79-3.66,3.76,3.76,0,0,0-.7-2.29h-.63a3.85,3.85,0,0,1,.65,2.26c0,2.07-1.29,3.52-3.14,3.52a3.25,3.25,0,0,1-1.14-.21l-.16.17Zm1.36-7.12a3.52,3.52,0,0,0-3.8,3.65,3.45,3.45,0,0,0,1.5,3l.25-.22,0,0a3.56,3.56,0,0,1-1.12-2.77A3.17,3.17,0,0,1,221.4,117a3,3,0,0,1,2.1.8v-.46A4.25,4.25,0,0,0,221.39,116.82Zm0,.66a2.68,2.68,0,0,0-2.64,3c0,1.79,1,3,2.59,3s2.65-1.21,2.65-3A2.65,2.65,0,0,0,221.4,117.48Zm3.3.21h2.21V117l-.15-.1-2.2.6Zm-.69,0Z"/>
            <path d="M231.68,123.84c0,2.55.82,3.44,2.36,3.44a5.32,5.32,0,0,0,4-2.22h.36v.85h-.8l.58-.24a5.72,5.72,0,0,1-4.51,2.68c-2.08,0-3.18-1.11-3.16-4.37l.06-6.44.39.34-2.32-.29V117l2.92-.21.22.27-.1,3.28ZM238,128.2l-.09-2.75,0-7.89.41.32-2.31-.28V117l2.89-.21.23.27-.09,3.28v7.43l-.45-.59,2.23.27V128Z"/>
            <path d="M233.67,128.59a3.12,3.12,0,0,1-2.35-.81c-.72-.73-1.07-2-1-3.81l0-5.92-1.92-.24v-1.07l3.27-.23.36.43-.1,3.38v3.52c0,2.81,1,3.19,2.11,3.19a4.21,4.21,0,0,0,2.49-.87h-.15l.33-.14a7.21,7.21,0,0,0,1-.94l0-7-1.9-.23v-1.08l3.25-.23.37.43-.09,3.38V127l1.77.22v1.07l-1.77.1v.1l-.07-.09-1.49.08-.06-1.87A5.47,5.47,0,0,1,233.67,128.59Zm-2.86-10.48-.05,5.87c0,1.69.28,2.82.91,3.45a2.69,2.69,0,0,0,2,.67,5,5,0,0,0,3.79-1.94h-.14a5,5,0,0,1-3.28,1.37c-1.8,0-2.61-1.14-2.61-3.69v-3.53l.07-2.11Zm7.44,8.91,0,.92.65,0Zm1.11.46v.4l1.28-.07v-.17Zm-1.12-.63.63.07v-1.76l-.22.29v.71h-.43Zm0-2h.45v.39l.22-.09v-4.8l0-2.12-.7-.08Zm-7.77-7.72,1.07.94,0-.92-.08-.09Zm7.36,0,1.14.89,0-.87-.08-.1Zm-1.47.29,1.41.16v-.45l-1.41.1Zm-7.43,0,1.43.18v-.45l-1.44.1Z"/>
            <path d="M246.85,122a36.85,36.85,0,0,1,3.78-1v.6a29.18,29.18,0,0,0-3.56,1c-2,.76-2.65,1.67-2.65,2.68a2,2,0,0,0,2.2,2.08c1.13,0,2-.56,3.49-2l.35-.31.13.55-.4.42c-1.45,1.55-2.44,2.3-4,2.3a2.76,2.76,0,0,1-3-2.85C243.18,124,244.18,122.87,246.85,122Zm3.2,3.81v-5.35c0-2.5-.85-3.13-2.6-3.13a4.51,4.51,0,0,0-2.65.85l.75-.66-.51,1.78c-.14.5-.4.74-.82.74a.7.7,0,0,1-.75-.65c.48-1.77,2.06-2.77,4.21-2.77,2.35,0,3.53,1.06,3.53,3.69v5.23c0,1.54.39,2,1.06,2a1.44,1.44,0,0,0,1-.45l.33.41a2,2,0,0,1-1.67.87C250.7,128.32,250.11,127.37,250.05,125.76Z"/>
            <path d="M246.2,128.59a3,3,0,0,1-3.27-3.09c0-1.72,1.15-2.85,3.84-3.78h0c.82-.28,1.82-.54,3-.82v-.49c0-2.43-.79-2.88-2.35-2.88a4.11,4.11,0,0,0-1.77.38l-.4,1.41a1.07,1.07,0,0,1-1.06.92.94.94,0,0,1-1-.86v-.1c.5-1.85,2.16-3,4.45-3,2.58,0,3.78,1.25,3.78,3.94v5.23c0,1.75.53,1.75.81,1.75a1.18,1.18,0,0,0,.82-.39l.19-.16.62.75-.12.16a2.29,2.29,0,0,1-1.87,1c-.64,0-1.67-.27-2-1.87C248.66,128,247.67,128.59,246.2,128.59Zm.73-6.41c-2.49.86-3.5,1.83-3.5,3.32a2.5,2.5,0,0,0,2.77,2.6c1.41,0,2.32-.65,3.62-2a.25.25,0,0,0,0-.08,4.71,4.71,0,0,1-3.19,1.6,2.22,2.22,0,0,1-2.45-2.32c0-1.26.89-2.18,2.81-2.91a26.16,26.16,0,0,1,2.82-.86v-.1C248.65,121.67,247.71,121.92,246.93,122.18Zm3.4,4.08c.15,1.2.68,1.81,1.58,1.81a1.77,1.77,0,0,0,1.35-.62l0-.06a1.51,1.51,0,0,1-.94.35c-1.15,0-1.3-1.21-1.3-2.25v-5.23c0-2.41-1-3.44-3.29-3.44a5.39,5.39,0,0,0-1.77.27l-.06.22a4.72,4.72,0,0,1,1.6-.27c2.07,0,2.85.91,2.85,3.37v.38l.28-.06.3-.06v1.1l-.2,0-.38.09v3l.3-.28.26,1.09-.5.52ZM249.8,122a26,26,0,0,0-2.65.81c-2.23.85-2.48,1.8-2.48,2.45a1.72,1.72,0,0,0,2,1.83c1,0,1.73-.42,3.18-1.76Zm.5,3.54v0l0,0v0Zm0-4.26v.09l.08,0v-.09Zm-6.58-2a.46.46,0,0,0,.5.4c.25,0,.45-.1.59-.57l.26-.93-.14.08-.3-.38.66-.58A3.23,3.23,0,0,0,243.72,119.35Z"/>
            <path d="M264.06,130.19c0-1.08-.61-1.94-2.46-1.94h-2.88a10.88,10.88,0,0,1-1.52-.11v-.09c-1-.22-1.57-.79-1.57-1.67s.67-1.8,2-2.92l.36.29c-.83.88-1.27,1.45-1.27,2.21s.49,1.16,1.88,1.16h3.28c2.18,0,3.33,1,3.33,2.82s-1.8,3.85-5.45,3.85c-3.16,0-4.85-1.25-4.85-3,0-1.36,1-2.32,2.78-3.07l.15.21c-1.15.81-1.72,1.49-1.72,2.63,0,1.66,1.37,2.51,3.7,2.51C262.59,133,264.06,131.76,264.06,130.19Zm-4.59-13.62a3.72,3.72,0,0,1,4,3.9,4,4,0,1,1-4-3.9Zm-2.88,3.9c0,1.91,1.14,3.24,2.84,3.24s2.9-1.35,2.9-3.27a2.89,2.89,0,0,0-2.85-3.2A2.92,2.92,0,0,0,256.59,120.47Zm8.29-3.8.35.23v1h-3.41v-.43Z"/>
            <path d="M259.72,134c-3.14,0-5.09-1.27-5.09-3.3a3.15,3.15,0,0,1,1.78-2.71,1.8,1.8,0,0,1-1-1.65,3.57,3.57,0,0,1,1.42-2.54,4.2,4.2,0,0,1,2.67-7.52,4.54,4.54,0,0,1,2.73.83l2.72-.75.56.37v1.41h-2.34a4.34,4.34,0,0,1,.61,2.29,4,4,0,0,1-4.29,4.15,5.11,5.11,0,0,1-1.71-.28,2.37,2.37,0,0,0-.82,1.62c0,.23,0,.92,1.63.92h3.28c2.31,0,3.58,1.09,3.58,3.06S263.63,134,259.72,134Zm-2.92-5.67a2.75,2.75,0,0,0-1.68,2.37c0,1.75,1.72,2.8,4.6,2.8,3.58,0,5.21-1.86,5.21-3.6s-1-2.57-3.09-2.57h-3.28c-1.76,0-2.12-.77-2.12-1.41a2.75,2.75,0,0,1,.83-1.83l0,0a3.31,3.31,0,0,0-1.36,2.27,1.4,1.4,0,0,0,1.08,1.35c.19-.1.39-.2.6-.29l.19-.08.4.58-.06,0c.21,0,.43,0,.64,0h2.88c2.35,0,2.7,1.37,2.7,2.19,0,1.87-1.77,3.08-4.52,3.08-2.51,0-3.95-1-3.95-2.76A2.77,2.77,0,0,1,256.8,128.37Zm.68,0a2.48,2.48,0,0,0-1.16,2.09c0,2,2.17,2.26,3.46,2.26,2.45,0,4-1,4-2.58,0-1.14-.72-1.69-2.21-1.69h-2.88A10.19,10.19,0,0,1,257.48,128.42Zm.63-4.48a4.79,4.79,0,0,0,1.35.19,3.53,3.53,0,0,0,3.79-3.66,3.75,3.75,0,0,0-.69-2.29h-.64a3.85,3.85,0,0,1,.65,2.26c0,2.07-1.29,3.52-3.14,3.52a3.25,3.25,0,0,1-1.14-.21l-.16.17Zm1.36-7.12a3.52,3.52,0,0,0-3.8,3.65,3.45,3.45,0,0,0,1.5,3l.25-.22.05,0a3.56,3.56,0,0,1-1.12-2.77,3.17,3.17,0,0,1,3.13-3.48,3,3,0,0,1,2.1.8v-.46A4.25,4.25,0,0,0,259.47,116.82Zm0,.66a2.68,2.68,0,0,0-2.64,3c0,1.79,1,3,2.59,3s2.65-1.21,2.65-3S261,117.48,259.48,117.48Zm3.3.21H265V117l-.15-.1-2.2.6Zm-.69,0Z"/>
            <path d="M276.51,121a5.21,5.21,0,0,1-.15,1.34h-8.74v-.7h6.86c.65,0,.85-.36.85-1a3.18,3.18,0,0,0-3.18-3.31c-2.12,0-3.87,2-3.87,4.92,0,3.58,1.94,5.18,4.23,5.18a4.58,4.58,0,0,0,3.56-1.59l.37.33a4.9,4.9,0,0,1-4.2,2.23c-2.83,0-5.23-1.95-5.23-5.87,0-3.61,2.44-5.91,5.19-5.91A4.17,4.17,0,0,1,276.51,121Z"/>
            <path d="M272.24,128.59c-3.32,0-5.47-2.4-5.47-6.11,0-3.51,2.33-6.16,5.43-6.16a4.41,4.41,0,0,1,4.55,4.67,5.16,5.16,0,0,1-.16,1.41l0,.18h-8c.11,2.86,1.58,4.56,4,4.56a4.34,4.34,0,0,0,3.37-1.5l.17-.18.72.63-.12.18A5.18,5.18,0,0,1,272.24,128.59Zm0-11.77c-2.82,0-4.94,2.43-4.94,5.66,0,3.41,2,5.62,5,5.62a4.66,4.66,0,0,0,3.87-1.94l0,0a4.8,4.8,0,0,1-3.57,1.49c-2.09,0-4.33-1.34-4.47-5.06h-.66v-1.19h.7c.3-2.52,1.95-4.33,4.07-4.33a3.42,3.42,0,0,1,3.42,3.55c0,.55-.11,1.29-1.09,1.29h-5.94a1.27,1.27,0,0,0,0,.2h7.63a4.94,4.94,0,0,0,.1-1.09A3.89,3.89,0,0,0,272.2,116.82Zm-4.33,5.25H268v-.2h-.17Zm.71-.7,5.9,0c.4,0,.6-.12.6-.8a2.94,2.94,0,0,0-2.93-3.06C270.31,117.53,268.87,119.13,268.58,121.37Z"/>
            <path d="M293.18,124.24c0-1.66-.84-2.53-3.48-3.59l-.88-.36c-2.49-1-3.83-2.34-3.83-4.48,0-2.72,2.24-4,4.84-4a6.22,6.22,0,0,1,3.83,1.18l-.1,2.94h-.89l-.41-3.21.83.44v.65a4.74,4.74,0,0,0-3.31-1.21c-2.1,0-3.63,1-3.63,3,0,1.7,1.09,2.66,2.9,3.38l.94.37c3.36,1.33,4.35,2.58,4.35,4.73,0,2.7-2.25,4.32-5.32,4.32a8.56,8.56,0,0,1-4.51-1.27l.13-3.12h.84l.44,3.32-.9-.42v-.69a5.81,5.81,0,0,0,4,1.39C291.45,127.58,293.18,126.46,293.18,124.24Z"/>
            <path d="M289,128.61a8.78,8.78,0,0,1-4.65-1.31l-.11-.07.14-3.49h1.3l.37,2.86a5.17,5.17,0,0,0,2.92.73c2.5,0,3.94-1.13,3.94-3.09,0-1.56-.77-2.34-3.32-3.36l-.88-.36c-2.72-1.08-4-2.58-4-4.71,0-2.61,2-4.3,5.09-4.3a6.43,6.43,0,0,1,4,1.23l.11.07-.12,3.31h-1.34l-.35-2.75a4.35,4.35,0,0,0-2.32-.58c-2.12,0-3.39,1-3.39,2.78,0,1.44.83,2.38,2.76,3.15l.93.37c3.33,1.32,4.5,2.61,4.5,5C294.58,126.78,292.35,128.61,289,128.61Zm-2.81-1a8.6,8.6,0,0,0,2.81.48c3.08,0,5.07-1.6,5.07-4.07,0-1.84-.67-3.11-4.19-4.5l-.94-.37c-2.12-.84-3.06-2-3.06-3.61,0-2,1.49-3.27,3.88-3.27a4.91,4.91,0,0,1,2.24.47l0-.44a6.32,6.32,0,0,0-2.14-.33c-2.12,0-4.6,1-4.6,3.81,0,1.93,1.14,3.24,3.68,4.26l.89.35c2.71,1.09,3.62,2,3.62,3.82,0,2.24-1.65,3.58-4.43,3.58a5.8,5.8,0,0,1-2.84-.61Zm-1.45-.67h0v-.36Zm.51-.25.27.13a2.11,2.11,0,0,1-.27-.18Zm-.46-1,.36.26a4.06,4.06,0,0,0,.36.26l-.26-2h-.4Zm8.08-10.1h.43l.08-2.56-.07,0v1.26l-.4-.33-.29-.22Zm-.06-2.37h0Z"/>
            <path d="M306.16,121a5.21,5.21,0,0,1-.15,1.34h-8.73v-.7h6.85c.66,0,.85-.36.85-1a3.17,3.17,0,0,0-3.17-3.31c-2.12,0-3.87,2-3.87,4.92,0,3.58,1.93,5.18,4.23,5.18a4.57,4.57,0,0,0,3.55-1.59l.38.33a4.9,4.9,0,0,1-4.2,2.23c-2.84,0-5.23-1.95-5.23-5.87,0-3.61,2.43-5.91,5.18-5.91A4.17,4.17,0,0,1,306.16,121Z"/>
            <path d="M301.9,128.59c-3.33,0-5.48-2.4-5.48-6.11,0-3.51,2.34-6.16,5.43-6.16a4.41,4.41,0,0,1,4.56,4.67,5.59,5.59,0,0,1-.16,1.41l-.05.18h-8c.11,2.86,1.58,4.56,4,4.56a4.37,4.37,0,0,0,3.37-1.5l.16-.18.72.63-.12.18A5.16,5.16,0,0,1,301.9,128.59Zm0-11.77c-2.81,0-4.94,2.43-4.94,5.66,0,3.41,2,5.62,5,5.62a4.67,4.67,0,0,0,3.87-1.94l0,0a4.8,4.8,0,0,1-3.57,1.49c-2.1,0-4.34-1.34-4.47-5.06H297v-1.19h.71c.29-2.52,1.94-4.33,4.07-4.33a3.42,3.42,0,0,1,3.42,3.55c0,.55-.12,1.29-1.1,1.29h-5.94c0,.06,0,.13,0,.2h7.64a5.63,5.63,0,0,0,.1-1.09A3.9,3.9,0,0,0,301.85,116.82Zm-4.33,5.25h.17a1.27,1.27,0,0,1,0-.2h-.18Zm.71-.7,5.9,0c.41,0,.6-.12.6-.8a2.93,2.93,0,0,0-2.92-3.06C300,117.53,298.52,119.13,298.23,121.37Z"/>
            <path d="M310.31,123.07v-1.14c0-1.51,0-2.74-.07-3.84l-2.08-.09v-.61l2.89-.75.28.18.15,3.07v3.18c0,1.47,0,3.91.07,5h-1.31C310.29,127,310.31,124.54,310.31,123.07Zm-2,4.35,2.46-.27h.32l2.56.27V128H308.3Zm2.58-7.55h.87l-.41.24c.7-2.1,2.27-3.54,3.88-3.54a1.84,1.84,0,0,1,1.61.71c0,.73-.31,1.09-1,1.09a1.94,1.94,0,0,1-1.28-.61l-.54-.46,1.16,0c-1.69.3-2.87,1.5-3.75,3.76h-.56Z"/>
            <path d="M313.89,128.29h-5.84V127.2l2-.22c0-1.22,0-2.86,0-3.91v-1.14c0-1.39,0-2.54-.06-3.6l-2.08-.09v-1l3.17-.83.48.31.1,2.09a4.33,4.33,0,0,1,3.55-2.45,2.08,2.08,0,0,1,1.83.84l0,.06v.06c0,1.11-.67,1.34-1.23,1.34a2.18,2.18,0,0,1-1.44-.67l-.15-.12a4.39,4.39,0,0,0-1.87,1.8h.28l-.41.24a10,10,0,0,0-.54,1.13v2.07c0,1,0,2.68,0,3.9l2.13.23Zm-2.11-.5h1.62v-.15l-1.63-.17C311.78,127.58,311.78,127.69,311.78,127.79Zm-1.28,0h.79c0-.11,0-.24,0-.38l-.23,0h-.29l-.25,0C310.5,127.55,310.5,127.68,310.5,127.79Zm-2,0H310c0-.1,0-.2,0-.31l-1.47.16Zm-.13-10,2.07.08v.23c0,1.13.07,2.35.07,3.85v1.14c0,1,0,2.64,0,3.85l.21,0h.35l.19,0c0-1.22,0-2.82,0-3.85v-1.78h-.6v-1.66h.59l-.13-2.67-.08-.06-2.6.68Zm2.72,3h.1v-.33l-.1.06Zm.66-1.16h0a5.18,5.18,0,0,1,2-2.15l-.2-.17A5.32,5.32,0,0,0,311.79,119.63Zm3-2a1.64,1.64,0,0,0,1.06.51c.37,0,.71-.1.73-.79a1.75,1.75,0,0,0-1.36-.52,2.76,2.76,0,0,0-1.08.23l1,0,.05.49Z"/>
            <path d="M319.3,117.77l-2.2-.25v-.64h5v.64l-2.51.25Zm.45-.89,3.87,10.3-.63.53,3.88-10.83h.87l-4.24,11.3h-.65l-4.48-11.3Zm7,.89-2.28-.25v-.64h4.4v.64l-1.8.25Z"/>
            <path d="M322.45,128.48l.12-.34-4.05-10.21-1.66-.19v-1.11h5.51v1.12l-2,.19,3,7.92,2.83-7.9-2-.22v-1.11h4.89v1.11l-1.55.21-3.93,10.48h-1l-.05-.11Zm.66-.54h.22l.1-.28Zm-4-9.94,3.74,9.44.31-.86L319.9,118l-.26,0h-.36Zm4.58,8.58.09.24,3.3-8.8h-.33Zm3.24-9,.34,0,.14-.39H327Zm-7.59,0h.41l-.14-.4h-.85l.14.36Zm5.45-.23,1.63.18.13-.36h-1.76Zm-4.66-.18.13.34,1.65-.16v-.18Zm7.81,0-.11.31.86-.12v-.19Zm-10.56.18,1,.11-.11-.29h-.85Z"/>
            <path d="M332,128c.05-1.06.07-3.5.07-5v-1.14c0-1.4,0-2.58-.06-3.84L329.9,118v-.61l3.09-.75.28.18-.06,2.93v3.32c0,1.47,0,3.91.08,5Zm3.08-.62V128H330v-.62l2.46-.27h.32Zm-3.63-15.27a1.09,1.09,0,1,1,1.08,1.06A1,1,0,0,1,331.45,112.15Z"/>
            <path d="M335.33,128.29h-5.56V127.2l2-.22c0-1.22,0-2.86,0-3.91v-1.14c0-1.31,0-2.43-.05-3.6l-2.11-.09v-1l3.37-.81.49.31-.06,3.06v3.32c0,1.05,0,2.69,0,3.91l1.83.22Zm-1.81-.5h1.32v-.15l-1.33-.16C333.52,127.59,333.52,127.7,333.52,127.79Zm-1.27,0H333c0-.11,0-.24,0-.37l-.25,0-.5,0C332.26,127.55,332.26,127.68,332.25,127.79Zm-2,0h1.5c0-.1,0-.2,0-.32l-1.51.17Zm2.54-.89.21,0c0-1.21,0-2.82,0-3.85v-3.32l0-2.8-.08,0-2.79.68v.19l2.1.08v.23c.05,1.26.06,2.45.06,3.85v1.14c0,1,0,2.63,0,3.85l.17,0Zm-.27-13.45a1.3,1.3,0,1,1,1.34-1.3A1.29,1.29,0,0,1,332.53,113.45Zm0-2.11a.79.79,0,0,0-.84.81.84.84,0,0,0,1.68,0A.79.79,0,0,0,332.53,111.34Z"/>
            <path d="M338.52,122.37c0,3,1.77,5,4.22,5a4.5,4.5,0,0,0,3.55-1.68l.39.25a4.48,4.48,0,0,1-4.17,2.4c-3.13,0-5.24-2.34-5.24-5.88,0-3.72,2.61-5.9,5.41-5.9a4,4,0,0,1,4,2.72.71.71,0,0,1-.75.63.85.85,0,0,1-.87-.7l-.65-1.88.89.82a4.36,4.36,0,0,0-2.58-.88C340.31,117.28,338.52,119.24,338.52,122.37Z"/>
            <path d="M342.51,128.59c-3.28,0-5.48-2.46-5.48-6.12a5.78,5.78,0,0,1,5.65-6.15,4.26,4.26,0,0,1,4.19,2.89l0,.06v.07a1,1,0,0,1-1,.83,1.1,1.1,0,0,1-1.11-.87l-.48-1.41a3.68,3.68,0,0,0-1.62-.36c-2.34,0-3.91,1.94-3.91,4.84s1.6,4.76,4,4.76a4.25,4.25,0,0,0,3.36-1.59l.14-.17.77.5-.12.2A4.73,4.73,0,0,1,342.51,128.59Zm.17-11.77c-2.56,0-5.16,1.94-5.16,5.65,0,3.37,2,5.63,5,5.63a4.22,4.22,0,0,0,3.84-2.07h0a4.75,4.75,0,0,1-3.6,1.6c-2.63,0-4.46-2.16-4.46-5.25s1.81-5.33,4.4-5.33a4.21,4.21,0,0,1,1.41.23L344,117A4.39,4.39,0,0,0,342.68,116.82Zm2.26,1.42.31.9c.13.39.31.54.64.54a.45.45,0,0,0,.49-.38,3.54,3.54,0,0,0-1.65-2l.7.64-.31.39Z"/>
            <path d="M358.32,121a4.8,4.8,0,0,1-.15,1.34h-8.73v-.7h6.85c.66,0,.85-.36.85-1a3.17,3.17,0,0,0-3.17-3.31c-2.12,0-3.87,2-3.87,4.92,0,3.58,1.93,5.18,4.23,5.18a4.57,4.57,0,0,0,3.55-1.59l.38.33a4.9,4.9,0,0,1-4.2,2.23c-2.84,0-5.23-1.95-5.23-5.87,0-3.61,2.43-5.91,5.19-5.91A4.16,4.16,0,0,1,358.32,121Z"/>
            <path d="M354.06,128.59c-3.33,0-5.48-2.4-5.48-6.11,0-3.51,2.34-6.16,5.44-6.16a4.41,4.41,0,0,1,4.55,4.67,5.16,5.16,0,0,1-.16,1.41l-.05.18h-8c.12,2.86,1.58,4.56,4,4.56a4.35,4.35,0,0,0,3.37-1.5l.16-.18.72.63-.12.18A5.16,5.16,0,0,1,354.06,128.59Zm0-11.77c-2.82,0-4.94,2.43-4.94,5.66,0,3.41,1.95,5.62,5,5.62a4.67,4.67,0,0,0,3.87-1.94l0,0a4.8,4.8,0,0,1-3.57,1.49c-2.1,0-4.34-1.34-4.47-5.06h-.67v-1.19h.71c.3-2.52,2-4.33,4.07-4.33a3.42,3.42,0,0,1,3.42,3.55c0,.55-.12,1.29-1.1,1.29h-5.94a1.41,1.41,0,0,1,0,.2H358a5.63,5.63,0,0,0,.1-1.09A3.9,3.9,0,0,0,354,116.82Zm-4.34,5.25h.17c0-.07,0-.14,0-.2h-.18Zm.72-.7,5.89,0c.41,0,.6-.12.6-.8a2.93,2.93,0,0,0-2.92-3.06C352.12,117.53,350.68,119.13,350.4,121.37Z"/>
            <path d="M360.76,127.55l-.08-2.47h.82l.47,2.58-.77-.32v-.56a5,5,0,0,0,3,.85c2,0,3.05-.93,3.05-2.2,0-1.1-.63-1.69-2.41-2.33l-1.1-.41c-1.7-.62-2.83-1.5-2.83-3.08s1.36-3,3.81-3a5.53,5.53,0,0,1,3.2,1l-.06,2.22h-.79l-.32-2.35.57.34v.46a4.35,4.35,0,0,0-2.65-.92c-1.76,0-2.62.88-2.62,2s.72,1.7,2.31,2.29l1,.37c2.21.82,3,1.76,3,3.2,0,1.68-1.37,3.17-4.25,3.17A7.69,7.69,0,0,1,360.76,127.55Z"/>
            <path d="M364.19,128.59a7.82,7.82,0,0,1-3.53-.82l-.14-.06-.1-2.88h1.28l.4,2.16a5,5,0,0,0,2.14.4c1.76,0,2.8-.73,2.8-2,0-.86-.34-1.42-2.24-2.1l-1.11-.4c-1.28-.48-3-1.33-3-3.32s1.63-3.29,4.05-3.29a5.88,5.88,0,0,1,3.33,1l.13.08-.08,2.6h-1.25l-.27-2a3.94,3.94,0,0,0-1.91-.49c-1.49,0-2.37.67-2.37,1.79,0,1,.5,1.44,2.15,2.06l1,.37c2.27.84,3.19,1.83,3.19,3.43S367.51,128.59,364.19,128.59Zm-1.94-.74a7.13,7.13,0,0,0,1.94.25c2.43,0,4-1.14,4-2.92,0-1.14-.49-2.09-2.87-3l-1-.37c-1.61-.6-2.48-1.17-2.48-2.52,0-1.1.76-2.28,2.87-2.28a4.42,4.42,0,0,1,1.83.39l0-.35a5.42,5.42,0,0,0-1.74-.26c-2.16,0-3.56,1.09-3.56,2.79,0,1.3.82,2.18,2.66,2.85l1.1.41c1.63.58,2.58,1.19,2.58,2.56,0,1.19-.87,2.45-3.3,2.45a5.79,5.79,0,0,1-2-.32ZM361,126.32l.38.25.2.13-.25-1.37h-.36Zm6.36-6.82h.34l0-1.84-.1-.06v1.08l-.4-.28,0,0Z"/>
        </g>
    </g>
</svg>